<svg width="375" height="324" viewBox="0 0 375 324" fill="none" xmlns="http://www.w3.org/2000/svg">
<rect width="375" height="324" fill="#F9E8E8" fill-opacity="0.6"/>
<g opacity="0.54">
<path opacity="0.54" d="M190.899 209.903C183.321 208.81 175.679 208.621 167.712 210.335C164.788 210.962 161.927 212.344 158.999 212.902C140.443 216.432 121.74 210.394 103.201 208.017C94.1457 206.854 84.6214 207.847 76.2548 213.908C71.7837 217.149 61.7538 221.546 60.5895 229.908C57.3127 253.443 83.1543 255.323 91.6374 255.877C115.087 257.408 126.568 254.818 150.769 254.111C162.373 253.779 177.223 248.306 190.436 245.476C201.667 243.082 227.013 248.465 238.294 248.293C249.448 248.117 261.052 257.159 272.173 258.368C294.089 260.753 298.883 263.562 320.313 254.071C324.801 252.078 334.595 247.851 336.538 240.123C340.3 225.113 320.09 216.837 314.768 216.213C290.513 213.36 266.784 210.567 242.556 212.892C235.034 213.612 227.253 217.315 219.874 216.382C210.18 215.153 200.606 211.301 190.899 209.903Z" fill="white"/>
</g>
<path d="M178.081 39.1258C234.518 21.5051 262.273 34.8252 262.273 34.8252L264.369 75.7553C264.369 75.7553 236.601 62.4318 180.18 80.0525C123.76 97.6732 98.5868 84.2203 98.5868 84.2203L96.4877 43.2835C96.4877 43.2835 121.647 56.7465 178.081 39.1258Z" fill="#4B5C7F"/>
<path d="M128.184 79.7005L122.223 62.7374L124.389 62.6244L127.246 70.9865C128.038 73.2746 128.72 75.3435 129.242 77.3394H129.285C129.618 75.3236 130.154 73.1185 130.729 70.8337L132.915 62.1994L135.057 62.0898L130.4 79.6042L128.184 79.7005Z" fill="white"/>
<path d="M150.503 68.2334C151.415 74.1015 148.68 77.7113 144.758 78.3157C140.699 78.9433 137.306 75.8914 136.508 70.7341C135.669 65.321 138.154 61.3127 142.259 60.6784C146.448 60.0308 149.721 63.1757 150.503 68.2334ZM138.62 70.3555C139.186 74.0085 141.468 76.9973 144.608 76.5025C147.749 76.0077 149.036 72.5174 148.434 68.6585C147.908 65.2712 145.772 61.9769 142.446 62.4883C139.119 62.9997 138.041 66.6128 138.62 70.3555Z" fill="white"/>
<path d="M151.285 59.3467L153.238 58.8918L156.721 73.8757L163.198 72.3746L163.62 74.1945L155.19 76.1605L151.285 59.3467Z" fill="white"/>
<path d="M162.649 56.5671L165.516 66.3704C166.601 70.0765 168.547 71.2189 170.54 70.6344C172.752 69.9902 173.697 67.9545 172.625 64.2948L169.758 54.4949L171.707 53.927L174.532 63.5775C176.019 68.6651 174.216 71.4547 170.982 72.4012C167.925 73.2912 165.054 72.0226 163.554 66.8885L160.699 57.135L162.649 56.5671Z" fill="white"/>
<path d="M179.814 69.3726L175.39 52.6984L177.506 52.1371L184.568 59.2937C186.04 60.7749 187.419 62.3453 188.697 63.9961L188.733 63.9595C187.961 61.781 187.366 59.7652 186.701 57.165L184.844 50.1911L186.671 49.7062L191.108 66.3771L189.149 66.8985L182.11 59.7055C180.589 58.1803 179.157 56.5704 177.818 54.8835L177.758 54.9267C178.424 56.9989 179.009 58.9915 179.754 61.7611L181.651 68.8877L179.814 69.3726Z" fill="white"/>
<path d="M194.149 50.0549L189.508 50.9814L189.136 49.125L200.426 46.8668L200.799 48.7265L196.142 49.6564L199.162 64.7133L197.166 65.1118L194.149 50.0549Z" fill="white"/>
<path d="M212.153 54.4783L206.165 55.2986L207.013 61.4622L213.69 60.5522L213.943 62.402L205.293 63.5909L202.938 46.5015L211.255 45.3591L211.511 47.2089L205.19 48.0789L205.935 53.4787L211.924 52.6585L212.153 54.4783Z" fill="white"/>
<path d="M223.74 53.5783L217.709 53.9768L218.128 60.1836L224.851 59.7286L224.974 61.595L216.251 62.1828L215.087 44.9706L223.467 44.406L223.593 46.2723L217.216 46.7007L217.586 52.1404L223.627 51.7319L223.74 53.5783Z" fill="white"/>
<path d="M227.529 44.5222C228.802 44.2948 230.095 44.198 231.388 44.2333C233.534 44.2731 234.911 44.7347 235.862 45.7244C236.265 46.1702 236.575 46.6911 236.774 47.2571C236.974 47.823 237.06 48.4229 237.027 49.022C236.983 51.3002 235.666 52.7846 234.033 53.3691V53.4455C235.227 53.927 235.919 55.169 236.255 56.9689C236.717 59.3832 237.057 61.0536 237.369 61.7245L235.27 61.6846C235.024 61.1964 234.705 59.6921 234.305 57.5468C233.886 55.159 233.075 54.2491 231.252 54.1395L229.362 54.1063L229.226 61.5783L227.23 61.5418L227.529 44.5222ZM229.395 52.416L231.448 52.4525C233.593 52.4924 234.977 51.2105 235.014 49.2412C235.054 47.0129 233.617 46.0166 231.498 45.9502C230.828 45.9175 230.156 45.9745 229.502 46.1196L229.395 52.416Z" fill="white"/>
<path d="M79.6048 34.2042C73.65 35.7218 67.4258 41.3076 67.3859 46.8402C63.9461 42.5031 54.0159 42.5131 48.3872 44.9739C33.5303 51.4629 34.2189 70.2525 44.6513 79.4813C50.2601 84.4427 57.1264 88.1157 64.2588 91.0613C70.2468 93.5387 85.0006 98.0717 85.0273 98.0352C85.0738 98.0518 93.9261 85.4158 97.1098 79.7902C100.912 73.0786 104.069 65.9752 105.426 58.6194C107.965 44.944 95.3167 30.1992 79.6048 34.2042Z" fill="#A0294C"/>
<path d="M247.489 118.963C247.63 118.489 247.633 117.985 247.499 117.508C247.365 117.032 247.099 116.603 246.732 116.271C246.364 115.939 245.911 115.717 245.422 115.631C244.934 115.545 244.432 115.599 243.973 115.785C238.344 118.077 229.648 121.009 226.195 118.917C225.659 118.585 215.613 114.6 211.531 112.979C211.03 112.782 210.481 112.742 209.957 112.865C209.433 112.989 208.959 113.27 208.6 113.67V113.67C208.35 113.949 208.163 114.278 208.05 114.635C207.937 114.992 207.903 115.369 207.948 115.74C207.993 116.112 208.117 116.469 208.311 116.789C208.506 117.109 208.766 117.384 209.076 117.595L224.142 127.86C224.456 128.073 224.813 128.216 225.187 128.279L230.021 129.099C230.409 129.165 230.807 129.142 231.185 129.032L244.352 125.267C244.778 125.145 245.167 124.918 245.482 124.606C245.797 124.294 246.027 123.908 246.152 123.483L247.489 118.963Z" fill="#D18F8F"/>
<path d="M260.786 115.095C260.786 115.095 270.959 131.815 277.15 131.968C277.938 131.988 294.505 135.219 294.505 135.219L295.28 139.988L273.467 140.619L267.872 138.261L257.472 126.462L260.786 115.095Z" fill="#D18F8F"/>
<path d="M258.557 113.836L258.783 113.922C262.349 115.301 265.16 121.504 266.767 125.154C270.925 134.565 272.755 144.382 273.088 154.793C273.274 160.398 273.221 166.014 273.051 171.623C273.005 173.174 271.684 187.052 272.386 187.384C265.317 183.997 258.131 180.799 250.613 178.873C243.094 176.946 235.187 176.325 227.595 178.105C229.874 160.488 233.184 142.572 237.981 125.532C238.554 123.493 238.936 121.325 239.788 119.392C240.769 117.17 242.246 116.509 244.112 115.194C244.737 114.724 245.405 114.315 246.108 113.972C249.808 112.312 254.798 112.455 258.557 113.836Z" fill="#D18F8F"/>
<path d="M269.518 169.255L261.488 202.056L261.355 226.222L257.426 227.079L255.849 204.606L251.914 163.453L269.518 169.255Z" fill="#DEC9AD"/>
<path d="M257.379 227.756L256.747 230.207L257.313 235.016H260.496L261.677 228.062L261.305 226.899L257.379 227.756Z" fill="#504A45"/>
<path d="M238.617 165.692L237.958 194.022L241.82 234.029L245.699 234.305L247.023 197.622L254.861 164.354L238.617 165.692Z" fill="#DEC9AD"/>
<path d="M241.94 233.359L236.721 236.138L237.14 238.572L246.368 237.427L245.916 233.923L241.94 233.359Z" fill="#504A45"/>
<path d="M237.486 169.352L234.921 202.086L237.635 224.528L248.141 223.914L249.967 198.389L254.458 170.56L253.743 166.23L238.603 166.479L237.486 169.352Z" fill="#A0A1A3"/>
<path d="M253.474 199.671L254.751 223.143L263.883 222.658L263.653 200.395L269.362 172.423L268.031 164.609L252.675 165.592L253.474 199.671Z" fill="#A0A1A3"/>
<path d="M232.093 169.946C241.494 171.361 257.136 172.423 266.541 173.841C267.013 156.872 265.303 137.285 261.172 120.873C260.423 117.884 259.319 114.683 256.711 113.172C253.913 111.551 247.991 111.784 246.295 114.945C243.81 119.568 243.331 126.92 242.226 132.061C239.731 143.698 233.63 158.143 232.093 169.946Z" fill="white"/>
<path d="M246.684 100.001C249.166 93.3893 257.516 96.046 259.013 101.994C260.011 105.919 256.844 110.94 252.888 111.907C252.966 112.876 253.001 113.848 252.995 114.822L249.821 114.49C249.488 114.454 249.112 114.387 248.959 114.095C248.885 113.909 248.869 113.706 248.913 113.511C248.989 112.846 249.069 112.182 249.146 111.518L248.919 111.405C247.04 110.409 245.925 108.32 245.669 106.215C245.413 104.109 245.939 101.987 246.684 100.001Z" fill="#DDC8AC"/>
<path d="M247.246 102.007C245.832 103.893 246.102 106.494 246.358 108.725C246.581 110.701 246.484 111.92 244.305 111.714C243.081 111.594 240.896 111.408 240.187 110.206C239.648 109.296 240.756 107.4 241.391 106.713C241.88 106.188 242.722 106.122 243.201 105.584C243.386 105.351 243.524 105.085 243.607 104.8C244.005 103.661 244.23 102.469 244.272 101.263C244.244 100.445 244.299 99.6262 244.435 98.819C244.715 97.6666 245.942 96.6238 246.704 95.7305C248.121 94.0701 251.694 92.4096 253.44 94.6579C253.801 95.2049 254 95.8427 254.013 96.4976C254.071 96.8828 254.052 97.2757 253.956 97.6533C253.48 99.1311 252.053 98.9319 250.889 99.3138C249.435 99.8323 248.167 100.77 247.246 102.007V102.007Z" fill="#E89A9A"/>
<path d="M257.832 105.909C257.569 106.978 256.634 107.958 256.917 109.021C257.04 109.496 257.393 109.871 257.655 110.286C258.011 110.857 258.212 111.511 258.24 112.183C258.268 112.855 258.122 113.523 257.815 114.122L264.166 115.965C264.478 116.084 264.816 116.123 265.147 116.078C265.839 115.918 266.145 115.121 266.325 114.437C266.694 113.089 267.057 111.634 266.578 110.322C266.355 109.715 265.962 109.18 265.743 108.572C264.685 105.64 267.835 102.163 266.252 99.4798C265.546 98.2842 264.122 97.7396 263.071 96.823C261.235 95.2356 260.57 92.569 258.637 91.1044C254.977 88.3381 249.322 92.0243 250.543 96.5009C251.538 100.157 258.89 101.602 257.832 105.909Z" fill="#E89A9A"/>
<path d="M258.287 114.351C258.287 114.351 261.358 156.473 254.821 164.792C248.284 173.111 245.486 176.246 245.486 176.246L272.363 187.387C272.363 187.387 271.664 125.954 258.287 114.351Z" fill="#D18F8F"/>
<path d="M138.88 113.056C138.88 113.056 122.828 124.499 117.08 122.235C116.348 121.946 99.8277 118.479 99.8277 118.479L97.2495 122.57L117.096 131.619H123.161L137.343 124.798L138.88 113.056Z" fill="white"/>
<path d="M92.4225 98.261C92.4225 98.261 94.8709 99.4864 95.3034 105.922C95.7359 112.358 97.2395 116.307 97.2395 116.307C97.2395 116.307 95.3167 117.761 93.5403 117.14C91.7638 116.519 91.1351 116.456 91.1484 113.799C91.1617 111.143 89.6115 98.8322 89.6115 98.8322L92.4225 98.261Z" fill="#E89A9A"/>
<path d="M87.7651 101.519C89.0251 101.598 90.2342 102.044 91.2434 102.801C92.2525 103.558 93.0175 104.593 93.4438 105.78C93.9559 105.028 94.2803 104.165 94.3896 103.263C94.4989 102.36 94.39 101.445 94.072 100.593C93.7541 99.7415 93.2363 98.9782 92.5621 98.3674C91.8879 97.7565 91.0769 97.3158 90.1969 97.0822C88.8963 98.2112 88.0902 99.8038 87.9514 101.519H87.7651Z" fill="#E89A9A"/>
<path d="M84.7545 116.748L68.6533 117.054L62.988 91.0447L57.6553 91.7952V123.639L67.1464 128.199L84.485 130.666L84.7545 116.748Z" fill="#E2CA7F"/>
<path d="M77.5389 232.273L77.2562 234.561L81.358 237.506L83.833 235.55L81.9235 232.933L77.8217 229.988L77.5389 232.273Z" fill="#3A332D"/>
<path d="M82.7851 162.354L81.9301 169.298L84.0359 193.202L77.3992 231.502L81.6374 233.063L93.7066 195.796L95.7325 184.92L96.1683 161.813L82.7851 162.354Z" fill="#59595B"/>
<path d="M111.827 170.68L101.448 234.873L97.3659 234.783L97.5289 193.494L90.7358 164.364L111.827 170.68Z" fill="#59595B"/>
<path d="M97.3992 234.275L97.3493 236.586L101.714 238.997L103.969 236.729L101.814 234.371L97.3992 234.275Z" fill="#3A332D"/>
<path d="M80.5429 162.172C84.0758 141.526 79.5449 134.396 79.7146 123.669C79.7334 122.463 80.0258 121.276 80.5697 120.198C81.1135 119.12 81.8948 118.179 82.8549 117.446C84.1091 117.187 85.2136 116.39 86.4777 116.094C95.0472 114.102 99.5516 120.84 102.582 128.086C106.321 137.013 107.18 146.909 109.645 156.287C111.81 164.52 113.989 171.743 117.02 180.646C118.154 183.983 117.615 187.487 113.83 188.948C107.802 191.273 101.088 191.08 94.7578 191.731C87.489 192.482 80.2136 192.986 72.9082 193.139C69.0958 193.229 77.01 182.821 80.5429 162.172Z" fill="#E2CA7F"/>
<path d="M59.5283 91.5893L56.4012 88.3282L57.6121 82.7391L60.6959 82.8056L61.4977 87.7138L63.0412 88.6869L62.988 91.0447L59.5283 91.5893Z" fill="#DDC8AC"/>
<path d="M90.6161 115.762L98.7465 117.389L115.08 133.864L134.505 133.562L135.463 139.563L112.705 143.053L94.2821 130.696L90.6161 115.762Z" fill="#E2CA7F"/>
<path d="M92.6188 116.24L93.64 138.298L82.7851 117.114L86.1118 116.011L88.4837 115.357L92.6188 116.24Z" fill="white"/>
<path d="M134.688 135.06L138.307 132.921L142.865 134.163L142.812 136.617L135.14 137.889L134.688 135.06Z" fill="#DDC8AC"/>
<path d="M93.2907 103.601C90.6128 97.4275 82.8051 100.357 81.674 106.098C81.0286 109.366 82.6487 115.101 86.5675 115.238C86.7538 115.795 87.0699 116.851 87.5921 117.134C88.1144 117.416 89.5582 116.712 90.1104 116.446C90.2695 116.384 90.4087 116.279 90.513 116.144C90.6261 115.961 90.5629 115.563 90.4664 115.125C90.9077 114.995 91.3304 114.808 91.7239 114.57C93.4571 113.534 94.4251 111.492 94.5582 109.476C94.6913 107.46 94.0958 105.457 93.2907 103.601Z" fill="#DDC8AC"/>
<path d="M90.0372 97.102C90.0372 97.102 91.6074 100.423 87.3493 102.415C83.0911 104.408 80.972 108.536 82.5755 112.053C84.179 115.57 88.1078 117.545 86.5675 118.91C85.0273 120.275 78.3905 120.753 78.3905 120.753C78.3905 120.753 71.5575 108.609 75.5429 101.791C79.5283 94.9733 87.0831 93.0704 90.0372 97.102Z" fill="#E89A9A"/>
<path d="M287.393 58.676C287.393 58.676 280.43 66.6262 277.499 88.6338L283.264 89.5935C283.264 89.5935 284.595 70.163 290.297 59.991L287.393 58.676Z" fill="#6B5A55"/>
<path d="M321.514 30.7571C321.514 30.7571 301.418 31.0892 292.572 38.8801C283.727 46.6709 287.699 60.5522 287.699 60.5522C287.699 60.5522 301.005 66.1978 309.841 58.4069C318.677 50.6161 321.514 30.7571 321.514 30.7571Z" fill="#69AF92"/>
<path d="M287.699 60.5523C287.699 60.5523 288.467 60.8844 289.748 61.2596L308.956 41.8191L287.25 58.4236C287.472 59.7453 287.699 60.5523 287.699 60.5523Z" fill="#667F72"/>
<path d="M256.661 38.7771C256.661 38.7771 257.037 56.6801 264.023 64.5207C271.009 72.3613 283.407 68.8013 283.407 68.8013C283.407 68.8013 288.397 56.9225 281.411 49.0818C274.425 41.2412 256.661 38.7771 256.661 38.7771Z" fill="#69AF92"/>
<path d="M283.407 68.8013C283.407 68.8013 283.693 68.1172 284.033 66.9748L266.594 49.9254L281.511 69.2065C282.692 69.0039 283.407 68.8013 283.407 68.8013Z" fill="#667F72"/>
<path d="M287.699 60.5523C287.699 60.5523 309.485 60.2766 318.098 44.3928C318.104 44.3861 311.784 70.422 287.699 60.5523Z" fill="#629182"/>
<path d="M224.711 233.016L225.074 235.793L219.878 239.293L216.734 236.879L219.152 233.74L224.349 230.243L224.711 233.016Z" fill="#454A5E"/>
<path d="M224.888 232.086L220.806 196.692L225.56 157.051L222.689 148.556L202.892 147.845L202.136 161.567L205.826 196.772L219.515 233.903L224.888 232.086Z" fill="#454446"/>
<path d="M187.073 151.84L187.083 187.567L194.372 233.541L199.558 233.481L202.329 190.944L208.919 148.367L187.073 151.84Z" fill="#454446"/>
<path d="M199.555 235.663L193.979 238.529L191.145 235.763L193.913 232.93L199.522 232.867L199.555 235.663Z" fill="#454A5E"/>
<path d="M227.805 163.915C227.752 162.368 227.665 161.076 227.652 160.614C227.532 156.46 224.129 151.243 223.66 147.111C222.156 134.133 222.549 121.062 221.228 118.253C217.938 111.279 218.949 110.615 204.562 108.566C198.241 107.669 196.77 111.594 191.627 116.114C191.118 116.559 191.152 119.206 191.035 119.91C190.829 121.145 190.609 122.377 190.37 123.606C190.17 124.573 189.951 125.532 189.705 126.489C189.705 126.489 186.97 147.111 184.585 155.291C183.168 160.146 180.876 162.736 183.703 163.925C185.418 164.589 187.206 165.047 189.029 165.29C189.029 165.29 197.113 164.377 201.275 164.4C205.111 164.436 208.939 164.785 212.719 165.443C215.237 165.858 217.808 166.462 220.064 167.635C222.213 168.75 223.77 170.394 225.952 171.553C226.149 171.684 226.381 171.75 226.617 171.743C227.865 171.567 227.915 167.173 227.805 163.915Z" fill="#4FB283"/>
<path d="M204.538 110.538C205.263 110.894 206.977 111.02 208.763 110.319C208.94 110.251 209.091 110.13 209.198 109.973C209.304 109.817 209.36 109.632 209.359 109.443C209.345 108.358 209.256 107.277 209.092 106.205C210.423 105.733 211.98 105.026 212.21 103.624C212.257 103.18 212.23 102.731 212.13 102.296C211.81 100.481 211.492 98.6618 211.175 96.8397C211.105 96.2026 210.911 95.5854 210.603 95.0232C210.001 94.08 208.83 93.6682 207.725 93.4756C204.901 92.9941 201.824 93.6085 199.641 95.4682C199.037 95.9404 198.567 96.562 198.277 97.2714C197.885 98.3773 198.181 99.596 198.484 100.728L199.315 103.87C199.648 105.076 200.094 106.444 201.258 106.895C201.877 107.134 202.605 107.061 203.164 107.417C204.152 108.041 204.023 109.492 204.538 110.538Z" fill="#DDC8AC"/>
<path d="M188.211 92.4328C187.937 91.9702 187.633 91.5264 187.299 91.1045C186.574 90.2145 185.679 89.444 185.094 88.4644C184.508 87.4847 184.302 86.1397 185.001 85.2265C185.45 84.6354 186.182 84.3398 186.894 84.1306C189.251 83.4369 191.752 83.3864 194.136 83.9845C196.391 84.5524 198.411 85.4988 200.683 84.6487C202.812 83.8483 204.342 84.1705 206.584 84.9575C208.999 85.8143 212.24 86.0102 214.425 87.219C215.329 87.7509 216.088 88.4954 216.637 89.3876C217.604 90.9214 218.12 92.6948 218.129 94.5067C218.137 96.3187 217.636 98.0967 216.684 99.6392C216.238 100.316 215.733 100.952 215.177 101.542C214.039 102.777 212.682 104.302 211.115 104.76C211.075 103.362 212.343 98.9485 211.265 97.8061C209.555 95.9895 205.696 96.6305 203.58 97.0854C201.271 97.5769 199.212 99.2141 196.927 99.5661C195.263 99.8218 193.174 99.0182 191.77 98.1714C190.027 97.1352 189.226 94.0933 188.211 92.4328Z" fill="#E89A9A"/>
<path d="M158.381 117.376L153.919 114.52L155.057 112.561L158.55 113.843L158.657 112.667L162.18 115.576L161.268 117.771L158.381 117.376Z" fill="#4FB283"/>
<path d="M200.107 109.227L176.867 118.791L162.18 115.576L160.749 118.382L174.159 128.199L192.612 125.971L200.107 109.227Z" fill="#4FB283"/>
<path d="M232.449 73.2049L232.07 67.3933L229.575 67.4498L228.953 71.488L227.758 70.9666L228.693 75.8981L231.295 76.1904L232.449 73.2049Z" fill="#4FB283"/>
<path d="M210.134 112.411L222.862 95.5047L228.693 75.8981L232.163 76.0177L232.216 98.6762L220.177 122.617L210.134 112.411Z" fill="#4FB283"/>
<path d="M135.573 235.53L135.453 237.961L140.2 240.631L142.755 238.323L140.443 235.773L135.696 233.103L135.573 235.53Z" fill="#59595B"/>
<path d="M131.568 161.796L131.202 169.179L139.472 201.647L135.36 234.737L140.14 235.939L153.331 196.168L153.547 184.206L150.204 159.625L131.568 161.796Z" fill="#394860"/>
<path d="M167.915 161.033L171.651 191.864L170.18 232.306L165.699 232.794L158.85 196.373L148.697 160.315L167.915 161.033Z" fill="#394860"/>
<path d="M165.929 234.677L171.042 236.567L173.198 233.883L170.51 231.728L165.666 232.259L165.929 234.677Z" fill="#59595B"/>
<path d="M169.715 155.895C165.077 146.52 163.214 150.881 160.782 126.12C160.433 123.041 159.358 120.089 157.645 117.506C155.729 114.547 153.088 113.222 150.164 112.717C146.597 112.099 142.609 112.7 139.006 113.032C138.867 113.045 138.735 113.098 138.626 113.184C138.517 113.27 138.435 113.386 138.391 113.517C136.232 119.94 134.761 116.27 132.186 123.018C131.315 125.303 130.929 128.099 130.886 130.524C130.516 151.561 130.22 153.501 128.464 160.315C127.549 163.869 125.876 168.153 125.47 172.304C125.471 172.451 125.489 172.598 125.523 172.742C125.916 172.809 126.291 172.878 126.644 172.948C131.897 174.022 137.25 174.537 142.612 174.482C147.373 174.421 152.111 173.816 156.734 172.679C163.055 171.105 170.556 171.729 175.713 167.562C174.182 164.496 171.235 158.97 169.715 155.895Z" fill="white"/>
<path d="M172.339 85.5188L172.136 80.2286L169.868 80.2186L169.206 83.8716L168.134 83.3668L168.863 87.8733L171.218 88.2021L172.339 85.5188Z" fill="#D5C6AB"/>
<path d="M150.669 112.365L164.192 102.14L168.863 87.8732L172.01 88.0658L173.687 104.581L158.607 124.938L150.669 112.365Z" fill="white"/>
<path d="M135.556 100.924C137.446 94.9468 146.098 92.7749 148.198 99.6491C148.83 101.715 149.226 103.91 148.843 106.035C148.46 108.161 147.18 110.216 145.217 111.11H145.184C145.267 111.657 145.353 112.209 145.436 112.77C145.471 112.886 145.46 113.01 145.407 113.119C145.361 113.17 145.306 113.211 145.244 113.239C145.182 113.268 145.115 113.283 145.047 113.285L143.078 113.617C142.75 113.694 142.408 113.694 142.08 113.617C141.388 113.404 141.082 112.587 141.052 111.867C141.052 111.694 141.052 111.535 141.052 111.345C137.16 110.07 134.319 104.823 135.556 100.924Z" fill="#DDC8AC"/>
<path d="M147.496 91.1211C149.102 91.0348 150.303 92.6952 151.687 93.6383C152.838 94.4221 154.199 94.7276 155.407 95.4017C156.614 96.0759 157.735 97.3511 157.629 98.8023C158.959 98.261 160.413 97.7131 161.817 98.1216C163.221 98.53 164.385 100.363 163.683 101.711C163.055 102.92 161.381 103.063 160.719 104.249C159.668 106.125 161.717 109.389 159.997 110.535C159.585 110.811 159.056 110.837 158.647 111.123C158.141 111.478 157.925 112.149 157.649 112.74C156.441 115.397 153.48 116.954 150.759 116.327C149.924 115.802 149.204 115.115 148.64 114.306C148.077 113.498 147.682 112.585 147.479 111.621C146.957 109.266 148.257 108.586 148.67 106.46C149.109 104.09 148.618 101.642 147.299 99.6226C146.451 98.3474 145.17 97.1983 143.73 96.9194C143.144 96.8098 143.284 97.3179 142.662 96.7998C142.335 96.4075 142.116 95.9372 142.027 95.4349C143.75 94.3058 145.387 91.2307 147.496 91.1211Z" fill="#E89A9A"/>
<path d="M130.45 92.4494C129.611 92.5989 128.73 92.4826 127.918 92.7516C126.704 93.1501 126.657 94.3689 126.228 95.3884C125.753 96.5175 125.071 98.0285 124.216 98.8621C123.6 99.4632 122.788 99.762 122.067 100.19C121.345 100.619 120.653 101.316 120.58 102.223C120.506 103.129 121.019 103.913 121.022 104.78C121.002 106.068 120.719 106.703 120.989 108.048C121.128 108.745 121.288 109.479 121.754 109.987C122.366 110.651 123.317 110.738 124.169 110.678C125.021 110.618 125.906 110.465 126.704 110.821C128.437 111.591 127.931 113.368 128.264 114.925C128.77 117.3 131.321 118.91 133.444 118.273C135.247 117.741 136.438 115.825 136.554 113.829C136.607 112.833 136.301 111.867 136.365 110.867C136.428 109.868 137.096 108.629 136.298 107.782C136.078 107.608 135.869 107.421 135.669 107.224C135.537 107.026 135.457 106.797 135.436 106.56C135.38 106.164 135.41 105.76 135.525 105.376C135.64 104.993 135.837 104.639 136.102 104.338C136.481 103.933 136.993 103.674 137.25 103.153C137.546 102.572 137.423 101.848 137.446 101.16C137.502 99.5362 138.537 98.0385 139.941 97.5437C140.869 97.2116 141.691 97.0522 142.526 96.5009C142.652 96.4179 144.562 95.0298 144.575 95.3685C144.508 94.7788 144.296 94.215 143.956 93.728C143.505 92.8873 142.887 92.1472 142.14 91.5528C139.685 89.8126 139.232 93.2763 137.19 92.6221C136.697 92.4627 136.365 91.9579 135.939 91.6491C135.134 91.0513 134.066 91.1377 133.154 91.4432C132.243 91.7487 131.395 92.2834 130.45 92.4494Z" fill="#E89A9A"/>
<path d="M110.736 198.881L162.479 218.836L219.186 199.93L171.075 181.35L110.736 198.881Z" fill="#9B8A78"/>
<path d="M191.933 221.074C202.516 215.693 206.725 202.768 201.336 192.203C195.946 181.639 182.998 177.437 172.415 182.817C161.832 188.198 157.623 201.123 163.012 211.688C168.402 222.252 181.35 226.454 191.933 221.074Z" fill="#EFEFEF"/>
<path d="M196.162 189.028L196.661 188.656C196.561 188.52 194.116 185.305 189.289 183.442L189.063 184.026C191.818 185.06 194.262 186.782 196.162 189.028V189.028Z" fill="#5C5955"/>
<path d="M168.104 188.975C170.015 186.737 172.465 185.023 175.224 183.993L175.001 183.409C170.164 185.252 167.709 188.46 167.605 188.596L168.104 188.975Z" fill="#5C5955"/>
<path d="M197.918 213.403C199.385 211.843 200.546 209.352 201.365 206.004C201.732 204.507 201.997 202.985 202.156 201.451L201.534 201.398C201.534 201.478 200.799 209.432 197.462 212.975L197.918 213.403Z" fill="#5C5955"/>
<path d="M166.325 213.344L166.78 212.918C163.454 209.358 162.759 201.405 162.752 201.325L162.13 201.375C162.286 202.91 162.545 204.434 162.905 205.935C163.713 209.285 164.861 211.776 166.325 213.344Z" fill="#5C5955"/>
<path d="M181.747 221.679C183.481 221.684 185.211 221.497 186.904 221.121L186.757 220.517C186.707 220.517 181.717 221.719 177.296 220.5L177.13 221.101C178.636 221.497 180.189 221.691 181.747 221.679V221.679Z" fill="#5C5955"/>
<path d="M182.183 193.9L189.485 199.22L186.677 207.797L177.635 207.781L174.858 199.193L182.183 193.9Z" fill="#44403E"/>
<path d="M182.19 189.254L174.888 183.937L177.695 175.359L186.737 175.376L189.515 183.963L182.19 189.254Z" fill="#44403E"/>
<path d="M189.003 212.444L198.041 212.57L200.713 221.194L193.327 226.395L186.089 220.988L189.003 212.444Z" fill="#44403E"/>
<path d="M185.891 205.543L185.331 205.821L189.647 214.478L190.207 214.2L185.891 205.543Z" fill="#44403E"/>
<path d="M194.023 197.39L196.085 188.603L205.094 187.849L208.597 196.168L201.754 202.066L194.023 197.39Z" fill="#44403E"/>
<path d="M196.328 196.014L187.441 199.862L187.69 200.435L196.577 196.586L196.328 196.014Z" fill="#44403E"/>
<path d="M175.247 212.53L166.208 212.623L163.504 221.234L170.872 226.464L178.131 221.085L175.247 212.53Z" fill="#44403E"/>
<path d="M178.376 205.615L174.028 214.257L174.587 214.537L178.935 205.896L178.376 205.615Z" fill="#44403E"/>
<path d="M170.21 197.396L168.048 188.633L159.033 187.978L155.619 196.334L162.529 202.155L170.21 197.396Z" fill="#44403E"/>
<path d="M167.879 196.027L167.637 196.602L176.566 200.353L176.808 199.777L167.879 196.027Z" fill="#44403E"/>
<path d="M181.896 184.752L181.876 194.94L182.502 194.941L182.521 184.753L181.896 184.752Z" fill="#44403E"/>
<path d="M162.396 261.633L110.666 235.5L110.736 198.838L162.459 218.8L162.396 261.633Z" fill="#9B8A78"/>
<path d="M162.396 261.633L219.119 236.726L219.186 199.917L162.459 218.8L162.396 261.633Z" fill="#BEAE9B"/>
<path d="M157.965 189.712C156.746 190.103 155.732 190.96 155.146 192.097C154.559 193.233 154.449 194.555 154.838 195.773V195.773C155.03 196.375 155.34 196.935 155.75 197.418C156.159 197.901 156.66 198.299 157.223 198.589C157.787 198.879 158.402 199.055 159.034 199.108C159.666 199.16 160.302 199.087 160.906 198.894L167.559 196.765C168.778 196.376 169.793 195.519 170.379 194.383C170.965 193.247 171.076 191.925 170.686 190.708V190.708C170.493 190.105 170.183 189.546 169.774 189.063C169.365 188.58 168.864 188.182 168.3 187.892C167.737 187.602 167.121 187.426 166.49 187.373C165.858 187.321 165.222 187.393 164.618 187.587L157.965 189.712Z" fill="#765E43"/>
<path d="M165.024 205.27C164.341 204.919 163.595 204.705 162.829 204.641C162.063 204.577 161.292 204.664 160.559 204.898C159.827 205.132 159.148 205.507 158.562 206.003C157.975 206.499 157.492 207.105 157.14 207.788C156.787 208.469 156.572 209.214 156.508 209.979C156.444 210.744 156.531 211.514 156.766 212.245C157 212.976 157.376 213.654 157.873 214.239C158.37 214.825 158.978 215.307 159.661 215.658L167.203 219.537C167.886 219.889 168.632 220.103 169.398 220.166C170.164 220.23 170.935 220.143 171.667 219.909C172.4 219.675 173.078 219.3 173.665 218.804C174.252 218.308 174.735 217.702 175.087 217.02V217.02C175.798 215.642 175.931 214.039 175.458 212.563C174.986 211.087 173.945 209.859 172.566 209.149L165.024 205.27Z" fill="#765E43"/>
<path d="M140.313 213.161C140.665 212.479 141.148 211.872 141.735 211.377C142.322 210.881 143.001 210.505 143.733 210.272C144.465 210.038 145.236 209.95 146.002 210.014C146.768 210.078 147.514 210.292 148.198 210.644C148.881 210.995 149.488 211.477 149.985 212.063C150.482 212.649 150.858 213.326 151.092 214.057C151.326 214.788 151.414 215.558 151.35 216.323C151.286 217.087 151.072 217.832 150.719 218.514L146.834 226.043C146.482 226.725 145.999 227.331 145.412 227.827C144.825 228.323 144.146 228.698 143.414 228.932C142.682 229.166 141.911 229.253 141.145 229.189C140.379 229.125 139.633 228.911 138.949 228.56C138.266 228.208 137.659 227.726 137.162 227.14C136.665 226.555 136.289 225.877 136.055 225.146C135.821 224.415 135.733 223.645 135.797 222.881C135.861 222.116 136.075 221.371 136.428 220.689L140.313 213.161Z" fill="#765E43"/>
<path d="M129.921 198.668C129.316 198.861 128.756 199.17 128.272 199.579C127.787 199.988 127.388 200.488 127.098 201.051C126.808 201.614 126.631 202.229 126.579 202.86C126.527 203.491 126.6 204.126 126.794 204.729V204.729C127.184 205.946 128.042 206.959 129.18 207.544C130.318 208.13 131.642 208.24 132.862 207.851L139.515 205.722C140.735 205.332 141.749 204.474 142.335 203.338C142.922 202.201 143.032 200.879 142.642 199.661V199.661C142.251 198.444 141.392 197.431 140.254 196.846C139.115 196.26 137.791 196.15 136.571 196.54L129.921 198.668Z" fill="#765E43"/>
<path d="M139.462 211.939C140.547 215.32 142.932 218.133 146.093 219.76C149.254 221.388 152.932 221.697 156.321 220.619V220.619C159.713 219.537 162.534 217.154 164.166 213.994C165.797 210.835 166.105 207.158 165.021 203.773L163.524 199.123C162.987 197.447 162.124 195.893 160.985 194.549C159.847 193.206 158.454 192.099 156.887 191.293C155.32 190.487 153.609 189.997 151.852 189.851C150.095 189.705 148.326 189.906 146.647 190.443C143.257 191.526 140.436 193.909 138.805 197.069C137.174 200.228 136.867 203.904 137.951 207.289L139.462 211.939Z" fill="#765E43"/>
<path d="M152.078 195.244C158.827 190.948 160.811 182.003 156.507 175.265C152.204 168.527 143.243 166.547 136.493 170.843C129.744 175.139 127.76 184.084 132.064 190.822C136.367 197.56 145.328 199.54 152.078 195.244Z" fill="#765E43"/>
<path d="M148.701 196.823C155.169 194.757 159.482 190.181 158.335 186.602C157.188 183.023 151.015 181.795 144.548 183.861C138.08 185.926 133.767 190.502 134.914 194.082C136.061 197.661 142.234 198.888 148.701 196.823Z" fill="#DDC8AC"/>
<path d="M158.713 174.999C160.806 171.904 159.989 167.701 156.889 165.612C153.788 163.523 149.578 164.338 147.485 167.434C145.392 170.529 146.209 174.731 149.31 176.82C152.41 178.91 156.62 178.094 158.713 174.999Z" fill="#765E43"/>
<path d="M136.263 181.589C137.957 178.26 136.626 174.19 133.291 172.5C129.955 170.809 125.879 172.137 124.185 175.467C122.491 178.797 123.822 182.866 127.158 184.557C130.493 186.248 134.57 184.919 136.263 181.589Z" fill="#765E43"/>
<path d="M148.866 179.261C148.955 179.54 149.125 179.787 149.355 179.97C149.584 180.152 149.863 180.263 150.155 180.288C150.448 180.312 150.741 180.25 150.998 180.108C151.255 179.966 151.464 179.752 151.599 179.491C151.733 179.231 151.787 178.936 151.754 178.645C151.721 178.354 151.602 178.079 151.413 177.855C151.223 177.632 150.971 177.469 150.689 177.388C150.407 177.307 150.107 177.312 149.828 177.401C149.453 177.521 149.142 177.784 148.962 178.133C148.781 178.481 148.747 178.887 148.866 179.261Z" fill="#2B292A"/>
<path d="M135.526 183.522C135.616 183.801 135.786 184.048 136.015 184.23C136.245 184.413 136.524 184.523 136.817 184.548C137.109 184.572 137.403 184.509 137.659 184.367C137.916 184.225 138.125 184.01 138.259 183.749C138.394 183.489 138.447 183.194 138.414 182.903C138.38 182.611 138.261 182.337 138.071 182.113C137.881 181.89 137.629 181.728 137.346 181.647C137.064 181.567 136.764 181.572 136.484 181.662C136.299 181.721 136.127 181.816 135.979 181.942C135.83 182.068 135.708 182.221 135.619 182.394C135.53 182.567 135.476 182.755 135.46 182.949C135.444 183.142 135.467 183.337 135.526 183.522V183.522Z" fill="#2B292A"/>
<path d="M141.92 189.944C141.97 189.846 142.04 189.759 142.124 189.688C142.208 189.617 142.305 189.563 142.41 189.529C142.515 189.495 142.626 189.483 142.736 189.492C142.846 189.501 142.953 189.532 143.051 189.582C143.848 189.995 144.752 190.156 145.643 190.044L144.578 186.723C142.719 186.132 142.379 184.81 142.379 184.81C142.272 184.484 142.295 184.128 142.445 183.819C142.594 183.509 142.858 183.269 143.181 183.15L145.234 182.486C145.567 182.396 145.922 182.438 146.225 182.605C146.527 182.772 146.752 183.049 146.854 183.379C146.897 183.502 147.279 184.724 146.172 186.198L147.239 189.519C148.029 189.092 148.671 188.437 149.082 187.64C149.133 187.542 149.202 187.455 149.286 187.384C149.371 187.312 149.468 187.259 149.573 187.225C149.678 187.191 149.789 187.179 149.898 187.188C150.008 187.197 150.115 187.227 150.214 187.278C150.312 187.328 150.399 187.397 150.47 187.481C150.541 187.565 150.595 187.663 150.629 187.767C150.663 187.872 150.675 187.983 150.666 188.092C150.657 188.202 150.627 188.309 150.576 188.407C149.828 189.857 148.534 190.951 146.979 191.449C145.423 191.947 143.733 191.809 142.279 191.064C142.084 190.962 141.937 190.787 141.87 190.578C141.803 190.368 141.821 190.141 141.92 189.944V189.944Z" fill="#634930"/>
<path d="M154.532 168.275C155.348 168.79 155.926 169.607 156.138 170.547C156.351 171.486 156.181 172.472 155.666 173.287L149.512 169.408C150.031 168.597 150.849 168.024 151.789 167.812C152.728 167.6 153.714 167.766 154.532 168.275V168.275Z" fill="#DAB9B9"/>
<path d="M127.349 176.956C127.53 176.514 127.796 176.112 128.132 175.772C128.468 175.433 128.868 175.163 129.309 174.978C129.75 174.793 130.223 174.696 130.701 174.694C131.18 174.691 131.654 174.783 132.096 174.964L129.339 181.685C128.448 181.32 127.738 180.617 127.365 179.731C126.992 178.845 126.987 177.847 127.349 176.956Z" fill="#DAB9B9"/>
<path d="M162.459 218.8L172.546 236.092L227.602 214.393L219.139 199.917L162.459 218.8Z" fill="#D7C7B7"/>
<path d="M101.438 210.361L150.573 233.674L162.459 218.8L110.679 198.838L101.438 210.361Z" fill="#BEAE9B"/>
<path d="M279.069 89.6732L275.942 86.4121L277.153 80.823L280.237 80.8894L281.039 85.7977L282.582 86.7707L282.532 89.1286L279.069 89.6732Z" fill="#DDC8AC"/>
<path d="M301.973 118.535L306.631 118.326C306.711 117.094 306.693 115.858 306.578 114.63C306.578 114.779 309.066 113.471 309.285 113.172C309.914 112.322 309.987 110.89 310.247 109.877C310.802 107.719 311.321 105.288 310.177 103.375C308.989 101.383 306.428 100.718 304.119 100.662C301.215 100.592 297.975 101.442 296.488 103.933C295.157 106.181 296.85 109.489 297.343 111.863C297.582 113.032 297.951 114.367 299.043 114.852C299.621 115.115 300.323 115.085 300.839 115.453C301.737 116.111 301.534 117.506 301.973 118.535Z" fill="#DDC8AC"/>
<path d="M291.894 99.6458C291.716 98.0451 291.541 96.4445 291.368 94.8438C291.259 94.253 291.28 93.6454 291.431 93.0638C291.764 92.124 292.705 91.5328 293.667 91.2705C294.628 91.0081 295.643 90.9982 296.614 90.7823C297.652 90.5499 298.663 90.0883 299.725 90.1181C301.747 90.2045 303.297 92.0708 305.293 92.3863C308.061 92.8214 310.616 91.5528 312.279 94.8006C312.585 95.3951 312.672 96.0825 312.945 96.6968C313.277 97.4905 313.943 98.1149 314.432 98.8222C316.624 101.944 315.925 106.686 313.281 109.34C311.997 110.625 311.474 111.787 309.705 112.202C310.513 110.542 309.428 104.003 307.206 103.272C306.617 103.076 304.854 103.8 304.212 103.897C302.776 104.051 301.366 104.386 300.014 104.893C297.985 105.757 295.831 106.296 293.633 106.49C293.359 106.56 293.068 106.521 292.822 106.381C292.647 106.182 292.552 105.925 292.556 105.66L291.894 99.6458Z" fill="#E89A9A"/>
<path d="M326.797 236.64L327.422 239.247L322.822 243.112L319.582 241.126L321.568 237.892L326.168 234.029L326.797 236.64Z" fill="#3A332D"/>
<path d="M316.069 155.892L317.975 163.819L315.646 200.701L326.867 235.733L321.93 238.011L299.502 197.582L296.824 184.661L295.423 157.333L316.069 155.892Z" fill="#9E9379"/>
<path d="M285.11 159.097L284.778 193.352L291.328 237.506L296.301 237.5L299.362 196.739L306.092 155.972L285.11 159.097Z" fill="#9E9379"/>
<path d="M296.271 236.908L296.275 239.592L290.902 242.285L288.211 239.605L290.892 236.918L296.271 236.908Z" fill="#3A332D"/>
<path d="M322 165.579C322.077 168.704 322 172.915 320.782 173.071C320.555 173.077 320.332 173.012 320.144 172.885C318.061 171.753 316.588 170.162 314.535 169.069C312.386 167.927 309.924 167.322 307.512 166.897C303.895 166.232 300.229 165.861 296.551 165.788C293.662 165.795 290.775 165.945 287.902 166.24C285.51 166.442 283.284 167.156 280.846 166.99C278.335 166.826 275.901 166.061 273.75 164.759C273.667 164.717 273.6 164.651 273.557 164.569C273.532 164.471 273.543 164.367 273.59 164.277C274.096 162.882 274.462 161.498 275.387 160.342C276.418 159.05 277.15 157.406 277.895 155.938C279.489 152.863 280.854 149.674 281.977 146.397C283.617 141.961 285.49 137.64 287.07 133.187C288.164 130.102 289.162 126.97 290.659 124.038C291.827 121.746 293.91 118.392 296.421 117.396C297.293 117.104 298.21 116.968 299.129 116.994L307.472 116.739C308.487 116.709 309.542 116.682 310.466 117.101C311.854 117.722 312.639 119.173 313.327 120.528C316.408 126.595 318.377 133.147 319.485 139.898C320.067 143.425 320.603 146.959 321.022 150.505C321.488 154.461 321.81 158.439 321.884 162.421C321.894 162.853 321.967 164.095 322 165.579Z" fill="#97B6C4"/>
<path d="M289.435 128.365L273.527 115.42L277.466 88.1024L283.547 88.0692L282.679 111.747L296.754 118.585L289.435 128.365Z" fill="#97B6C4"/>
<path d="M295.932 147.802L290.958 146.706L273.899 223.839L278.873 224.935L295.932 147.802Z" fill="#796D55"/>
<path d="M267.24 202.238L264.016 216.82C260.955 230.662 273.108 239.286 273.108 239.286C273.108 239.286 287.772 236.56 290.826 222.728L294.053 208.146L267.24 202.238Z" fill="#59595B"/>
<path d="M292.516 151.508L291.824 151.007C291.401 150.708 281.511 143.528 284.093 131.812L284.535 129.819L308.933 135.196L308.49 137.189C305.899 148.905 293.893 151.259 293.384 151.352L292.516 151.508ZM287.785 134.724C287.353 141.13 291.751 145.607 293.49 147.111C295.723 146.484 301.574 144.299 303.883 138.271L287.785 134.724Z" fill="#59595B"/>
<path d="M295.934 147.804L290.96 146.708L288.695 156.952L293.668 158.048L295.934 147.804Z" fill="#59595B"/>
<path d="M302.958 145.381L300.689 146.288L298.723 145.408L298.327 145.73L298.703 146.235L296.864 145.972L295.576 146.76L295.433 148.759L296.591 150.479L298.593 150.409L300.616 149.144L303.773 148.041L302.958 145.381Z" fill="#DDC8AC"/>
<path d="M300.337 144.787L313.055 136.747L310.466 117.091L323.883 127.548L321.83 144.94L302.067 149.217L300.337 144.787Z" fill="#97B6C4"/>
</svg>
