<svg width="375" height="324" viewBox="0 0 375 324" fill="none" xmlns="http://www.w3.org/2000/svg">
<path d="M375 0H0V324H375V0Z" fill="#FFF3A5" fill-opacity="0.6"/>
<path d="M261.891 168.121C257.141 166.427 256.873 156.747 262.322 153.475C266.242 151.109 266.601 144.91 266.601 139.662V138.822C266.601 127.402 255.71 121.731 227.952 114.652C217.917 112.097 188.179 107.977 155.155 107.977L68.1883 106.673C58.2517 106.654 37 117.005 37 138.822V139.662C37 146.663 40.0052 156.538 55.7823 156.819C75.2309 157.171 126.6 156.819 126.6 156.819H127.083C131.082 156.861 134.923 158.382 137.862 161.088C142.279 164.999 145.147 171.25 145.147 178.251V178.498C145.061 183.52 142.997 188.306 139.401 191.82C135.805 195.335 130.967 197.295 125.933 197.278H73.9243C70.379 197.284 66.8828 198.105 63.7067 199.676C53.855 204.48 46.8713 215.972 46.8713 229.367V230.618C46.8713 246.38 56.5793 259.579 70.795 255.095C75.5902 253.589 99.1088 252.07 118.904 248.576C230.487 229.022 264.791 245.682 272.938 252.67C285.148 262.291 298.919 252.865 299.978 236.452C299.969 235.166 299.828 233.884 299.56 232.626C298.057 221.734 292.693 209.01 287.408 204.096C287.164 203.873 286.977 203.595 286.864 203.286C286.75 202.976 286.713 202.643 286.755 202.316C286.918 201.058 288.231 200.498 289.492 200.706C300.958 202.629 307.393 205.999 322.196 202.955C329.187 201.514 336.954 195.648 336.993 187.252C337.059 173.01 320.008 155.196 305.289 157.171C280.307 160.554 266.228 169.666 261.891 168.121Z" fill="#F4D67A"/>
<path d="M148.243 240.07C140.946 237.137 145.898 251.673 148.309 254.202C148.857 254.775 149.707 254.391 150.144 253.869C151.601 252.129 151.137 249.587 150.798 247.494C150.595 246.373 150.38 245.252 150.242 244.118C150.099 242.886 150.242 241.752 149.707 240.663C149.657 240.526 149.579 240.4 149.478 240.295C149.377 240.189 149.255 240.106 149.119 240.05C148.984 239.994 148.839 239.967 148.692 239.97C148.546 239.974 148.402 240.008 148.269 240.07" fill="#FFA874"/>
<path d="M151.928 250.864L153.287 258.034L131.506 258.093C131.558 257.362 131.864 256.673 132.373 256.144C132.881 255.615 133.559 255.281 134.289 255.199C136.935 254.873 141.58 254.919 142.919 253.361C143.791 252.352 144.732 251.405 145.735 250.525C145.735 250.525 147.538 249.75 148.028 251.268C148.526 250.748 149.193 250.42 149.91 250.342C150.627 250.264 151.349 250.443 151.947 250.845" fill="#1C0825"/>
<path d="M139.378 131.11C139.848 141.67 138.339 151.089 138.339 159.139C138.339 170.057 138.261 180.884 140.364 191.6C141.776 198.77 142.252 212.263 142.181 219.59C142.076 229.119 142.344 238.362 143.095 247.859C143.077 248.405 143.255 248.939 143.598 249.365C144.108 249.736 144.745 249.891 145.369 249.795L152.189 249.606C152.375 243.926 153.478 238.314 155.456 232.985C156.899 229.074 154.41 223.611 155.325 219.55C156.155 215.874 155.88 204.141 155.854 200.374C155.73 179.678 160.27 162.6 160.14 141.911C160.236 139.888 160.002 137.863 159.447 135.914C157.553 130.472 149.863 128.093 145.212 131.495" fill="url(#paint0_linear)"/>
<path d="M171.487 240.585C164.184 237.645 169.142 252.188 171.553 254.717C172.102 255.29 172.944 254.906 173.389 254.384C174.845 252.637 174.382 250.095 174.009 248.009C173.813 246.888 173.591 245.767 173.46 244.633C173.317 243.401 173.46 242.267 172.918 241.178C172.869 241.041 172.792 240.916 172.691 240.81C172.591 240.704 172.469 240.621 172.335 240.565C172.2 240.509 172.055 240.482 171.909 240.486C171.763 240.489 171.619 240.523 171.487 240.585Z" fill="#FFA874"/>
<path d="M175.727 250.864L177.687 257.917L155.985 259.755C155.976 259.023 156.225 258.311 156.688 257.742C157.151 257.174 157.799 256.786 158.52 256.646C161.133 256.105 165.765 255.773 166.967 254.104C167.755 253.03 168.615 252.011 169.541 251.053C169.541 251.053 171.278 250.134 171.893 251.607C172.345 251.053 172.978 250.676 173.681 250.54C174.385 250.404 175.113 250.519 175.74 250.864" fill="#1C0825"/>
<path d="M145.192 134.161C146.669 140.555 147.596 151.656 148.929 159.778C150.745 170.859 152.444 181.471 156.298 191.978C158.912 199.024 160.617 212.837 161.753 220.254C163.236 229.915 165.02 239.223 167.359 248.72C167.432 249.27 167.695 249.777 168.103 250.154C168.38 250.3 168.684 250.388 168.996 250.414C169.308 250.44 169.622 250.402 169.92 250.304L176.622 249C175.858 243.238 178.027 237.358 179.092 231.661C179.869 227.477 174.486 222.34 174.715 218.09C174.924 214.232 173.683 202.153 173.036 198.347C169.475 177.429 171.141 159.739 167.581 138.822C167.341 136.761 166.772 134.752 165.895 132.87C163.125 127.656 155.142 126.489 151.118 130.693" fill="url(#paint1_linear)"/>
<path fill-rule="evenodd" clip-rule="evenodd" d="M146.937 83.3903C146.937 83.3903 132.799 100.129 127.566 109.516C124.718 114.619 122.34 120.597 122.647 126.548C123.124 135.673 130.99 138.352 136.419 144.467C137.784 145.998 139.13 147.55 140.404 149.153C140.502 149.284 141.527 150.737 141.71 150.62C142.181 150.307 142.507 148.762 142.716 148.28C143.638 146.142 145.264 143.456 144.611 141.051C142.605 133.633 133.466 129.044 135.079 120.844C136.915 111.471 148.799 103.656 150.203 93.8977C150.778 89.8303 152.228 83.4946 146.937 83.3903Z" fill="url(#paint2_linear)"/>
<path d="M171.455 149.655C171.455 149.655 171.788 93.8258 168.012 87.5422C163.282 79.6812 151.582 76.5198 147.694 82.2755C138.339 96.1464 134.583 164.719 134.583 164.719C134.583 164.719 141.259 165.729 150.974 166.785C161.394 167.913 171.925 162.307 171.925 162.307" fill="#2F7AA6"/>
<path fill-rule="evenodd" clip-rule="evenodd" d="M161.126 81.7475C161.126 81.7475 160.061 88.0572 163.282 95.7162C164.654 98.9753 172.089 111.706 173.859 114.769C177.7 121.411 174.375 122.591 167.28 124.768C166.281 125.081 153.372 127.069 153.385 127.747C153.385 129.644 152.143 138.091 152.921 138.007C155.351 137.746 183.717 134.376 187.114 126.274C190.244 118.804 185.762 108.59 182.633 103.564C178.661 97.1828 168.561 78.9903 161.126 81.7475Z" fill="#2F7AA6"/>
<path d="M160.14 80.6655C159.536 78.6124 159.056 76.525 158.703 74.4145L157.723 68.5024C157.479 66.9101 156.613 65.4792 155.313 64.5236C154.014 63.568 152.387 63.1657 150.791 63.4051C149.275 63.6448 147.888 64.4011 146.868 65.5455C145.847 66.6898 145.255 68.1516 145.192 69.6822L147.263 96.0225C149.426 98.0106 160.329 81.3564 160.14 80.672" fill="#FFA874"/>
<path fill-rule="evenodd" clip-rule="evenodd" d="M151.49 99.0927C151.414 98.7482 151.27 98.4221 151.067 98.1333C150.863 97.8444 150.605 97.5985 150.307 97.4095C150.008 97.2205 149.675 97.0923 149.326 97.0321C148.978 96.972 148.621 96.9811 148.276 97.059L123.307 102.619C122.962 102.695 122.635 102.839 122.345 103.042C122.056 103.244 121.809 103.502 121.62 103.8C121.431 104.098 121.302 104.43 121.242 104.778C121.181 105.126 121.191 105.482 121.269 105.826L130.82 148.534C130.976 149.229 131.402 149.834 132.004 150.217C132.607 150.599 133.337 150.728 134.034 150.574L159.003 145.014C159.7 144.857 160.307 144.43 160.69 143.828C161.073 143.226 161.202 142.497 161.048 141.8L151.49 99.0927Z" fill="#FFA553"/>
<path d="M162.252 137.699C163.259 137.38 163.304 134.695 162.352 131.703C161.399 128.712 159.81 126.545 158.803 126.864C157.795 127.184 157.751 129.868 158.703 132.86C159.655 135.852 161.244 138.018 162.252 137.699Z" fill="#005C89"/>
<path fill-rule="evenodd" clip-rule="evenodd" d="M160.368 129.683C157.516 129.82 154.659 129.568 151.876 128.933C150.667 128.62 151.144 129.859 151.275 129.976C151.974 130.569 154.672 131.502 154.482 131.671C154.084 132.023 148.648 132.192 146.773 132.023C146.584 132.023 144.565 131.743 144.519 132.023C144.415 132.727 145.46 132.975 145.95 133.085C147.61 133.45 152.842 133.737 152.575 133.737C152.098 133.776 148.002 134.291 146.434 134.389C146.336 134.389 144.121 134.578 144.114 134.871C144.114 135.478 145.8 135.523 146.198 135.523C147.753 135.484 151.974 135.452 152.509 135.458C151.845 135.678 151.169 135.859 150.484 135.999C148.962 136.351 147.394 136.449 145.911 136.853C145.617 136.931 144.604 137.107 144.604 137.622C144.637 137.961 145.441 138.033 145.663 138.046C147.028 138.131 156.357 136.742 158.866 135.51C159.739 135.199 160.664 135.057 161.59 135.093C161.59 135.093 162.596 130.758 160.368 129.683Z" fill="#FFBE94"/>
<path d="M161.25 68.0722L162.217 61.6712C162.217 61.6712 164.902 60.1394 165.948 63.0922C166.993 66.045 163.988 68.737 161.25 68.0722Z" fill="#FFBE94"/>
<path fill-rule="evenodd" clip-rule="evenodd" d="M162.995 49.6907C162.792 49.6907 163.38 50.1665 163.452 50.2447C163.85 50.693 164.182 51.1956 164.438 51.7374C165.066 53.1662 165.412 54.702 165.458 56.2611C165.638 61.0585 164.315 65.7928 161.675 69.8061C161.198 70.497 159.643 72.8566 158.624 72.811C157.429 72.7589 157.971 68.3916 157.971 67.9288C158.141 62.6164 157.455 56.8803 159.375 51.8156" fill="#322233"/>
<path d="M169.194 105.324H159.023V107.977H169.194V105.324Z" fill="#005C89"/>
<path d="M163.975 59.7484C163.158 71.8463 162.341 79.8638 153.751 80.3592C145.16 80.8546 133.498 71.9571 132.884 61.554C132.27 51.1508 138.672 42.3185 147.257 41.8166C155.841 41.3147 163.328 49.3452 163.975 59.7484Z" fill="#FFBE94"/>
<path d="M140.391 75.1511C140.391 75.1511 134.393 74.7534 131.734 66.2275C129.076 57.7016 134.067 52.8586 134.067 52.8586C134.067 52.8586 129.859 45.4473 139.724 40.9431C149.589 36.439 156.553 43.2571 163.556 38.8508C170.56 34.4444 177.426 48.6282 162.609 53.2888C147.792 57.9493 142.566 51.1834 140.103 54.071C140.103 54.071 145.682 62.7468 139.587 68.4112C138.261 69.6757 140.391 75.1511 140.391 75.1511Z" fill="#322233"/>
<path d="M141.436 70.7121L138.307 64.5262C138.307 64.5262 134.602 63.4703 134.256 66.586C133.91 69.7017 138.385 71.8397 141.442 70.7121" fill="#FFBE94"/>
<path fill-rule="evenodd" clip-rule="evenodd" d="M223.117 75.5878C222.02 69.7213 211.025 61.6713 197.018 71.8593C189.486 77.3412 193.752 85.7042 193.752 92.7765C193.752 94.6342 193.099 95.9053 192.203 97.4696C192.04 97.7499 191.132 98.9232 191.367 99.2361C192.321 100.494 194.954 101.537 196.352 102.104C202.166 104.457 208.595 103.903 214.644 102.932C216.71 102.651 218.714 102.03 220.576 101.094C221.465 100.605 223.34 99.8423 223.34 99.8423C223.053 99.1704 222.834 98.4717 222.686 97.7564C222.549 96.2918 222.516 94.8193 222.588 93.3501C222.706 88.6439 224.744 84.2375 223.117 75.5878Z" fill="#322233"/>
<path fill-rule="evenodd" clip-rule="evenodd" d="M224.11 75.829L224.202 76.0181L224.287 76.2136L224.365 76.4092L224.45 76.5982L224.535 76.7872L224.62 76.9828L224.783 77.3543L224.868 77.5434L224.953 77.7259L225.032 77.9149L225.077 78.0061V78.0974V78.2929V78.4755V78.6645V78.8535V79.036V79.2185V79.4011V79.5836V79.7596V79.9356V80.1115V80.4635V80.633V81.8128V83.0839V83.2338V83.6901V83.8465V83.9899V84.1398V84.2898V84.4332V84.5766V84.72V84.8634V85.0068V85.2871L225.045 85.5673L225.012 85.8411L224.979 86.1084V86.3756L224.94 86.6429V86.708V86.9036L224.901 87.1578L224.862 87.412L224.823 87.6597L224.783 87.9074L224.744 88.1551L224.659 88.6309L224.581 89.1003L224.502 89.563L224.424 90.0128L224.391 90.2344L224.352 90.4495L224.32 90.6712L224.287 90.8863L224.254 91.1014L224.222 91.3099V91.5251V91.7336V91.9422V92.1508V92.2551V92.3594V92.4572V92.5615V92.6658V93.3762V93.9238V94.191V97.222V97.3459V97.4697V97.6066V97.6588V97.6913V97.763V97.8217V97.8804V97.9521V98.0173V98.0955V98.1672V98.2454V98.3171V98.3953V98.4735V98.5518V98.6235L224.274 98.7734L224.32 98.9037L224.365 99.0276L224.404 99.1319L224.437 99.2231V99.2818V99.3405L224.502 99.536L224.535 99.7316V99.9336L224.502 100.136L224.437 100.331L224.346 100.507L224.228 100.67L224.084 100.814L223.921 100.931L223.738 101.022H223.66L223.438 101.113L223.287 101.172L223.111 101.244L222.915 101.322L222.706 101.413L222.49 101.505L222.268 101.596L222.04 101.694L221.935 101.739L221.824 101.791L221.719 101.837L221.615 101.889L221.51 101.935L221.419 101.98L221.327 102.019L221.236 102.065L221.158 102.104L221.079 102.143L220.994 102.189L220.896 102.241L220.805 102.287L220.707 102.332L220.609 102.385L220.517 102.43L220.419 102.476L220.321 102.515L220.223 102.56L220.125 102.6L220.027 102.645L219.929 102.684L219.831 102.723L219.733 102.763L219.635 102.802L219.537 102.841L219.439 102.88L219.341 102.919H219.237L219.27 103.049H219.172L219.067 103.088H218.969L218.871 103.121H218.767H218.669H218.564H218.466H218.361H218.263L218.061 103.173L217.858 103.232L217.656 103.284L217.447 103.336L217.244 103.388L217.042 103.434L216.839 103.48L216.637 103.525L216.441 103.564L216.238 103.603L216.036 103.643L215.833 103.682H215.637L215.435 103.714H215.239H215.043H214.847L214.559 103.753L214.272 103.792L213.984 103.832L213.697 103.871L213.403 103.91L213.115 103.949L212.822 103.988H212.737H212.521H212.227H211.933L211.639 104.027H211.352H211.051H210.757H210.463H210.169H209.875H209.575H209.281H208.987H208.686H208.392H208.092H207.798H207.51H207.216H204.08H203.93H203.78H203.63H203.479H203.336H203.185H203.035H202.885H202.735H202.591H202.441H202.29H202.14H201.996H201.846H201.696H201.546H201.402H201.252H201.101H200.958H200.807H200.664H200.513H200.363H200.219H200.069H199.925H199.775H199.658H199.507L199.364 103.995H199.213L199.07 103.955L198.919 103.916L198.776 103.884L198.625 103.845L198.482 103.805L198.338 103.76L198.188 103.721L198.044 103.682L197.9 103.636L197.757 103.59L197.606 103.545L197.463 103.499L197.319 103.453L197.175 103.401L197.031 103.349L196.888 103.304L196.744 103.251L196.6 103.193L196.456 103.141L196.313 103.088L196.169 103.03L196.025 102.971L195.744 102.86L195.444 102.736L195.281 102.671L195.117 102.6L194.947 102.528L194.771 102.456L194.595 102.378L194.412 102.293L194.229 102.215L194.039 102.124L193.85 102.039L193.667 101.948L193.569 101.902L193.477 101.857L193.379 101.804L193.288 101.759L193.138 101.746L193.046 101.7L192.948 101.648L192.857 101.596L192.765 101.544L192.674 101.491L192.576 101.439L192.484 101.387L192.393 101.329L192.301 101.276L192.217 101.218L192.125 101.166L192.034 101.107L191.949 101.048L191.864 100.99L191.772 100.931L191.687 100.866L191.602 100.807L191.524 100.742L191.439 100.677L191.361 100.612L191.282 100.546L191.204 100.481L191.126 100.416L191.054 100.344L190.975 100.273L190.903 100.201L190.832 100.129L190.766 100.051L190.701 99.9727L190.636 99.901L190.603 99.8554L190.564 99.8033V99.7576L190.525 99.6925L190.472 99.5947L190.427 99.4904L190.394 99.3796V99.2818V98.8711V98.806V98.7408V98.6821V98.6235V98.5713V98.5192V98.467V98.4149V98.3692V98.3236V98.2715V98.2258L190.433 98.1411L190.479 98.0564L190.525 97.9716L190.57 97.8869L190.623 97.8087L190.668 97.7239L190.714 97.6522L190.766 97.574L190.812 97.5023L190.903 97.3654L190.988 97.2351L191.126 97.033L191.171 96.9678L191.25 96.8374L191.328 96.694L191.406 96.5572L191.485 96.4203L191.557 96.2899L191.629 96.153L191.7 96.0227L191.766 95.8923L191.831 95.7684L191.896 95.6381V95.5794L191.929 95.5142V95.4556V95.3904V95.3317V95.2665V95.2079V95.1427V95.084V95.0188V94.9602V94.9015V94.8363V94.7777V94.719V94.6538V94.5952V94.53V94.4713V94.4061V94.3475V94.2823V94.2236V94.1584V94.0933V94.0346V93.9694V93.9042V93.839V93.7739V93.7087V93.6435V93.5718V91.6685V91.5055V91.3425V91.1796V91.0166V90.8472V90.6842V90.5212V90.3518V90.1823V90.0193V89.8499V89.6804V89.5109V89.3414V89.172L191.877 88.8265L191.831 88.4875L191.779 88.1421L191.727 87.7901L191.674 87.4446L192.099 86.7537L192.047 86.4017L191.994 86.0497L191.942 85.6912L191.89 85.3392L191.844 84.9807V84.8047V84.6287V84.4462V84.2702V84.0942V83.9117V83.7357V83.5532V83.3772V83.1947V83.0187V82.8362V82.6602V82.4777V82.3017V82.1192V79.9681V79.7856V79.6096V79.4271V79.2511V79.1599V79.0751V78.9839V78.8926V78.8079V78.7166V78.6254V78.5406V78.4494V78.3581V78.2734V78.1821V78.0909V78.0061V77.9149V77.8302V77.7389V77.6542V77.5629V77.4716V77.3869V77.3022V77.2109V77.1262V77.0349V76.9502V76.8589V76.7742V76.6829L191.877 76.5982V76.5135L191.91 76.4222V76.3375L191.942 76.2527L191.975 76.168V76.0767L192.008 75.992V75.9073V75.8551L192.047 75.7704L192.079 75.6856L192.119 75.6009L192.158 75.5096L192.197 75.4249L192.243 75.3402L192.282 75.2554L192.328 75.1707L192.367 75.0925L192.413 75.0077L192.458 74.923L192.504 74.8383L192.55 74.7535L192.602 74.6688L192.648 74.5906L192.7 74.5058L192.752 74.4211L192.798 74.3429L192.857 74.2581L192.909 74.1799L192.961 74.0952L193.02 74.017L193.072 73.9322L193.131 73.854L193.19 73.7693L193.249 73.691L193.308 73.6128L193.366 73.5346L193.432 73.4499L193.49 73.3717L193.556 73.2934L193.621 73.2152L193.686 73.137L193.752 73.0588L193.824 72.9806L193.889 72.9023L193.961 72.8306L194.033 72.7524L194.098 72.6742L194.176 72.596L194.248 72.5243L194.32 72.4461L194.399 72.3744L194.477 72.2961L194.549 72.2244L194.627 72.1462L194.706 72.0745L194.791 72.0028L194.869 71.9246L194.954 71.8529L195.039 71.7812L195.124 71.7095L195.209 71.6378L195.294 71.5661L195.385 71.4944L195.47 71.4227L195.561 71.351L195.653 71.2793L195.744 71.2141L195.836 71.1424L195.927 71.0772L196.097 70.9534L196.267 70.8295L196.437 70.7122L196.607 70.5949L196.77 70.4775L196.94 70.3667L197.11 70.2494L197.273 70.1386L197.443 70.0343L197.606 69.9235L197.776 69.8192L197.939 69.7149L198.103 69.6106L198.273 69.5128L198.436 69.4085L198.599 69.3108L198.769 69.213L198.932 69.1217L199.096 69.0305L199.259 68.9392L199.422 68.848L199.586 68.7567L199.749 68.672L199.912 68.5872L200.076 68.5025L200.239 68.4178L200.402 68.3395L200.559 68.2548L200.722 68.1766L200.886 68.1049L201.043 68.0267L201.206 67.955L201.363 67.8833L201.526 67.8116L201.683 67.7399L201.846 67.6747L202.003 67.6095L202.16 67.5443L202.323 67.4791L202.48 67.4139L202.637 67.3553L202.793 67.2966L202.95 67.238L203.107 67.1858L203.264 67.1271L203.421 67.075L203.577 67.0229L203.734 66.9707L203.884 66.9251L204.041 66.8729L204.198 66.8273L204.348 66.7817L204.505 66.736L204.655 66.6904L204.812 66.6513L204.962 66.6122L205.113 66.5731L205.263 66.534L205.42 66.5014L205.57 66.4623L205.72 66.4297H205.87H205.916H206.021H206.171H206.315H206.465H206.615H206.765H206.909H207.059H207.203H207.347H207.497H207.641H207.785H207.928H208.072H208.216H208.817H208.961H209.104H209.241H211.312H211.443H211.58H211.711H211.842H211.972H212.103H212.234H212.364H212.495H212.626H212.75H212.88H213.004H213.135H213.259H213.383H213.514H213.638H213.762H213.88H214.004H214.128L214.246 66.4623H214.37L214.487 66.4949H214.612L214.729 66.534L214.847 66.5666H214.964L215.082 66.6057H215.2L215.317 66.6448L215.428 66.6839L215.546 66.723L215.657 66.7621L215.774 66.8012L215.885 66.8469L215.997 66.886L216.108 66.9316L216.219 66.9707L216.33 67.0163L216.441 67.062L216.545 67.1076L216.656 67.1532L216.761 67.1988L216.872 67.251L216.976 67.2966L217.081 67.3422L217.186 67.3944L217.29 67.4465L217.395 67.4987L217.499 67.5443L217.604 67.603L217.702 67.6551L217.806 67.7073L217.963 67.8507L218.061 67.9093L218.159 67.9615L218.257 68.0201L218.355 68.0723L218.453 68.131L218.551 68.1896L218.649 68.2483L218.734 68.3004L218.825 68.3656L218.91 68.4308L219.002 68.496L219.093 68.5612L219.178 68.6263L219.27 68.6915L219.354 68.7567L219.439 68.8219L219.524 68.8871L219.609 68.9588L219.694 69.024L219.779 69.0891L219.858 69.1608L219.942 69.2325L220.021 69.2977L220.099 69.3694L220.178 69.4411L220.256 69.5063L220.334 69.578L220.413 69.6497L220.485 69.7214L220.563 69.7931L220.635 69.8648L220.713 69.9365L220.785 70.0082L220.857 70.0864L220.929 70.1581L220.994 70.2298L221.066 70.3081L221.138 70.3798L221.203 70.4515L221.269 70.5297L221.334 70.6014L221.399 70.6796L221.465 70.7513L221.53 70.8295L221.595 70.9012L221.654 70.9794L221.719 71.0577L221.778 71.1294L221.837 71.2076L221.896 71.2858L221.955 71.364L222.013 71.4357L222.072 71.5139L222.124 71.5922L222.183 71.6704L222.236 71.7486L222.288 71.8268L222.34 71.905L222.392 71.9833L222.445 72.0615L222.49 72.1397L222.543 72.2179L222.588 72.2961L222.641 72.3744L222.686 72.4526L222.732 72.5308L222.771 72.609L222.817 72.6872L222.863 72.7655L222.902 72.8437L222.948 72.9219L222.987 73.0066L223.026 73.0848L223.065 73.1631L223.104 73.2413L223.137 73.3195L223.176 73.3977L223.209 73.4759L223.242 73.5542V73.5868V73.6389V73.7236V73.8084V73.8866V73.9713V74.0561V74.1343V74.219V74.2972V74.382V74.4602V74.5384V74.6232V74.7014V74.7796V74.8578V74.936V75.0143V75.0664L223.202 75.1577L223.17 75.2424L223.137 75.3271V75.4054V75.4836L223.523 75.4119H223.732L223.816 75.6074L224.11 75.829ZM210.123 68.0267H209H208.876H208.751H208.621H208.49H208.366H208.235H208.105H207.974H207.843H207.713H207.582H207.451H207.314H207.184H207.053H206.916H206.824H206.785L206.648 68.0593H206.511H206.373L206.243 68.0918H206.106L205.968 68.131H205.831L205.688 68.1701L205.55 68.2092L205.413 68.2483L205.276 68.2874L205.132 68.3265L204.995 68.3721L204.851 68.4178L204.714 68.4634L204.57 68.509L204.427 68.5546L204.283 68.6068L204.146 68.6589L204.002 68.7111L203.858 68.7632L203.715 68.8154L203.564 68.874L203.421 68.9327L203.277 68.9914L203.133 69.05L202.983 69.1152L202.839 69.1739L202.689 69.2391L202.545 69.3042L202.395 69.3759L202.245 69.4411L202.101 69.5128L201.951 69.5845L201.8 69.6562L201.65 69.7279L201.5 69.8062L201.35 69.8844L201.199 69.9626L201.049 70.0408L200.892 70.1256L200.742 70.2103L200.592 70.295L200.435 70.3798L200.285 70.4645L200.128 70.5558L199.978 70.647L199.821 70.7383L199.664 70.836L199.507 70.9273L199.357 71.0251L199.2 71.1228L199.044 71.2271L198.887 71.3249L198.73 71.4292L198.573 71.5335L198.416 71.6378L198.26 71.7486L198.096 71.8594L197.939 71.9702L197.783 72.081L197.619 72.1984L197.541 72.257L197.463 72.3157L197.378 72.3744L197.299 72.4395L197.227 72.4982L197.149 72.5569L197.077 72.6155L196.999 72.6807L196.927 72.7394L196.855 72.798L196.783 72.8632L196.711 72.9219L196.646 72.9871L196.581 73.0457L196.509 73.1109L196.443 73.1696L196.378 73.2348L196.319 73.2934L196.254 73.3586L196.189 73.4173L196.13 73.4825L196.071 73.5476L196.012 73.6063L195.953 73.6715L195.895 73.7367L195.836 73.7953L195.784 73.8605L195.725 73.9257L195.673 73.9909L195.62 74.0561L195.568 74.1213L195.516 74.1799L195.463 74.2451L195.418 74.3103L195.365 74.3755L195.32 74.4406L195.274 74.5058L195.222 74.571L195.176 74.6362L195.13 74.7014L195.091 74.7666L195.045 74.8317L195.006 74.9034L194.96 74.9686L194.921 75.0338L194.882 75.099L194.843 75.1642L194.804 75.2359L194.764 75.3011L194.725 75.3662L194.686 75.4379L194.653 75.5031L194.614 75.5748V75.64L194.582 75.7052V75.7769L194.549 75.8421L194.516 75.9138V75.979L194.484 76.0507V76.1224V76.1615V76.2332V76.3049L194.451 76.3701V76.4418V76.5135V76.5852V76.6569V76.7286V76.7937V76.8654V76.9372V77.0089V77.0806V77.1588V77.2305V77.3022V77.3739V77.4456V77.5173V77.5955V77.6672V77.7389V77.8106V77.8888V77.9605V78.0387V78.1104V78.1887V78.2604V78.3386V78.4103V78.4885V78.5667V78.6384V78.7166V78.8731V78.9448V79.1012V79.2577V79.4141V79.5705V81.526V81.689V81.8584V82.0214V82.1909V82.3604V82.5233V82.6928V82.8623V83.0317V83.2012V83.3707V83.5402V83.7096V83.8791V84.0551V84.2246L194.497 84.5701L194.542 84.9155L194.595 85.261L194.647 85.6065L194.699 85.9584L194.804 86.6559L194.856 87.0079L194.908 87.3599L194.96 87.7119L195.006 88.0638L195.058 88.4158V88.5918V88.7678V88.9438V89.1198V89.2958V89.4718V89.6478V89.8238V89.9998V90.1758V90.3518V90.5278V90.7037V90.8797V91.0557V91.2317V91.4077V93.5327V93.6239V93.7152V93.7999V93.9238V94.015V94.0998V94.191V94.2758V94.3605V94.4518V94.5365V94.6212V94.706V94.7907V94.8689V94.9537V95.0384V95.1166V95.2014V95.2796V95.3643V95.4425V95.5208L195.026 95.599V95.6772L194.993 95.7554V95.8336L194.96 95.9119V95.9901L194.928 96.0618L194.895 96.14V96.2182L194.862 96.2899V96.3681L194.823 96.4398L194.791 96.5181L194.719 96.668L194.64 96.8179L194.568 96.9613L194.49 97.1112L194.412 97.2546L194.327 97.4045L194.248 97.5545L194.163 97.6979L193.138 97.8347L193.046 97.9912V98.0368L193.014 98.089L192.948 98.1867L192.805 98.3953L192.733 98.5061L192.648 98.63L192.615 98.6886L192.576 98.7473L192.537 98.806L192.504 98.8646L192.471 98.9233L192.524 98.9689L192.576 99.0145L192.628 99.0602L192.687 99.1058L192.746 99.1514L192.805 99.1971L192.87 99.2427L192.935 99.2883L193.001 99.334L193.066 99.3796L193.138 99.4252L193.21 99.4708L193.281 99.5165L193.353 99.5621L193.432 99.6077L193.504 99.6533L193.582 99.699L193.66 99.7446L193.745 99.7837L193.824 99.8293L193.909 99.875L193.987 99.9206L194.072 99.9597L194.157 100.005L194.235 100.051L194.32 100.09L194.412 100.129L194.49 100.175L194.666 100.253L194.836 100.338L195.006 100.416L195.176 100.494L195.346 100.566L195.516 100.638L195.679 100.709L195.842 100.774L196.006 100.84L196.156 100.905L196.456 101.029L196.731 101.133L196.862 101.192L196.992 101.237L197.123 101.289L197.247 101.335L197.384 101.387L197.515 101.433L197.645 101.478L197.776 101.524L197.907 101.57L198.037 101.609L198.168 101.654L198.299 101.694L198.436 101.733L198.567 101.772L198.697 101.811L198.834 101.85L198.965 101.883L199.096 101.922L199.233 101.954H199.364H199.501H199.631H199.769L199.899 101.987H200.037H200.148H200.285H200.415H200.553H200.69H200.827H200.958H201.095H201.232H201.369H201.506H201.644H201.781H201.918H202.055H202.192H202.33H202.467H202.611H202.748H202.937H203.074H203.212H203.349H203.492H203.767H203.911H207.131H207.419H207.7H207.981H208.268H208.549H208.83H209.117H209.398H209.686H209.967H210.248H210.535H210.816L211.097 101.948L211.384 101.915L211.665 101.876L211.946 101.837L212.234 101.791H212.443H212.514L212.795 101.746L213.076 101.707L213.357 101.661L213.638 101.609L213.919 101.563L214.2 101.518L214.481 101.465H214.664L214.84 101.426H215.023H215.206L215.389 101.387L215.572 101.348L215.755 101.309L215.938 101.263L216.114 101.218L216.297 101.179L216.48 101.133L216.663 101.081L216.839 101.035L217.022 100.983L217.199 100.931L217.382 100.872L217.558 100.82H217.643H217.734H217.819H217.904L217.996 100.788H218.081H218.165L218.25 100.755H218.335H218.42H218.505H218.59L218.675 100.716H218.76L218.838 100.683L218.923 100.644L219.002 100.612L219.087 100.572L219.165 100.54L219.243 100.501L219.328 100.462L219.407 100.423L219.485 100.383L219.564 100.344L219.635 100.305L219.714 100.266L219.792 100.227L219.864 100.188L219.942 100.142L220.021 100.103L220.112 100.051L220.217 99.9923L220.321 99.9401L220.432 99.8815L220.543 99.8228L220.655 99.7707L220.772 99.712L220.89 99.6533L221.007 99.6012L221.125 99.5425L221.36 99.4317L221.595 99.3209L221.726 99.2622L221.693 99.1645L221.661 99.0667L221.628 98.9689V98.8711V98.7669V98.6691V98.5843V98.48V98.3758V98.2715V98.1672V98.0564V97.9064V97.7565V97.6131V97.4632V97.3198V97.1699V97.0265V96.8766V96.7332V92.4898V92.3724V91.9031V91.675V91.4403V91.2057V90.9775V90.7429V90.5147V90.2866L221.661 90.0519V89.8238L221.693 89.5891L221.759 89.1263L221.824 88.6635L221.889 88.1942L221.948 87.7184L221.981 87.4837L222.013 87.2425L222.046 87.0079V86.7602V86.519V86.3365V86.2713V86.0236V85.7759V85.5217V85.2675V85.0068V84.746V84.6222V84.3549V84.2246V81.8389V80.4505V80.2875V80.1311V79.9681V79.8052V79.6422V79.4793V79.3098V79.1403V78.9708V78.8014V78.6319V78.4559V78.3712V78.2799V78.0909L222.079 77.9084L222.111 77.7193L222.144 77.5303V77.3413L222.177 77.1457V76.9502V76.7546V76.5526V76.357V76.155V75.9464V75.7378L222.771 75.627L222.719 75.5683L222.66 75.5162L222.601 75.4575L222.536 75.4054L222.464 75.3532L222.418 75.3206V75.262V75.1968L222.386 75.1381V75.0729L222.353 75.0143V74.9556L222.32 74.8904L222.281 74.8317L222.249 74.7731L222.209 74.7079L222.177 74.6492L222.138 74.5906L222.098 74.5319L222.059 74.4732L222.013 74.4081L221.974 74.3494L221.935 74.2907L221.902 74.2516L221.87 74.1864V74.1213L221.83 74.0561L221.798 73.9974L221.759 73.9322L221.719 73.867L221.68 73.8019L221.641 73.7432L221.602 73.678L221.556 73.6128L221.517 73.5476L221.471 73.4825L221.432 73.4238L221.386 73.3586L221.341 73.2934L221.229 73.1957L221.184 73.1305L221.131 73.0653L221.086 73.0066L221.033 72.9414L220.988 72.8763L220.935 72.8176L220.883 72.7524L220.831 72.6872L220.779 72.6286L220.726 72.5634L220.668 72.5047L220.615 72.4395L220.576 72.4135L220.517 72.3548L220.459 72.2896L220.4 72.231L220.341 72.1723L220.282 72.1071L220.223 72.0484L220.165 71.9898L220.099 71.9311L220.04 71.8724L219.975 71.8138L219.91 71.7551L219.844 71.6965L219.779 71.6378L219.714 71.5791L219.648 71.5205L219.583 71.4618L219.511 71.4031L219.446 71.351L219.374 71.2923L219.309 71.2337L219.237 71.1815L219.165 71.1228L219.093 71.0707L219.021 71.012L218.943 70.9599L218.871 70.9077L218.799 70.8556L218.721 70.8035L218.649 70.7513L218.571 70.6992L218.492 70.647L218.414 70.5949L218.335 70.5427L218.257 70.4906L218.179 70.4384L218.1 70.3928L218.022 70.3407L217.963 70.2624L217.885 70.2168L217.8 70.1647L217.715 70.119L217.63 70.0734L217.558 70.0343L217.473 69.9821L217.388 69.93L217.31 69.8844L217.225 69.8322L217.114 69.8062L217.029 69.7605L216.937 69.7149L216.852 69.6628L216.767 69.6171L216.656 69.5454L216.571 69.4998L216.48 69.4607L216.389 69.4151L216.304 69.3694L216.212 69.3303L216.121 69.2847L216.029 69.2456L215.931 69.2L215.84 69.1608L215.748 69.1217L215.65 69.0826L215.559 69.0435L215.461 69.0044L215.363 68.9718L215.271 68.9327L215.173 68.8936L215.075 68.861L214.977 68.8219L214.879 68.7893H214.775H214.677L214.572 68.7567H214.474L214.37 68.7241H214.272H214.167H214.063L213.978 68.5025H213.873H213.769H213.664H213.553H213.449H213.344H213.233H213.129H213.018H212.906H212.795H212.684H212.573H212.462H212.351H212.24H212.122H212.011H211.9H211.783H211.665H211.554H211.43H211.312H210.123V68.0267Z" fill="#322233"/>
<path d="M194.092 239.594C200.35 236.739 196.561 249.658 194.542 251.979C194.085 252.507 193.327 252.2 192.929 251.757C191.583 250.284 191.903 248.042 192.151 246.197C192.282 245.213 192.432 244.242 192.511 243.225C192.589 242.208 192.426 241.152 192.857 240.181C192.896 240.059 192.96 239.947 193.044 239.852C193.129 239.756 193.233 239.679 193.349 239.626C193.465 239.572 193.591 239.544 193.719 239.542C193.847 239.54 193.974 239.564 194.092 239.614" fill="#FFBE94"/>
<path d="M190.845 248.615L189.12 254.795L208.131 256.444C208.141 255.802 207.925 255.176 207.521 254.677C207.116 254.178 206.548 253.837 205.916 253.713C203.636 253.237 199.573 252.931 198.521 251.47C197.835 250.527 197.084 249.632 196.274 248.791C196.274 248.791 194.758 247.983 194.216 249.274C193.819 248.789 193.264 248.459 192.648 248.34C192.032 248.221 191.394 248.321 190.845 248.622" fill="#1C0825"/>
<path d="M224.039 142.602L196.6 247.964L192.55 247.384C189.767 235.846 186.814 200.752 198.743 194.69C198.743 194.69 180.189 153.709 205.733 141.097C219.988 134.063 224.026 142.602 224.026 142.602" fill="#FFBE94"/>
<path d="M219.113 240.715C225.09 235.39 225.463 249.072 224.032 252.083C223.705 252.768 222.725 252.8 222.144 252.559C220.119 251.751 219.675 249.521 219.296 247.69C219.093 246.712 218.91 245.734 218.642 244.763C218.375 243.792 217.813 242.86 217.95 241.771C217.976 241.481 218.111 241.211 218.328 241.015C218.544 240.82 218.827 240.713 219.119 240.715" fill="#FFBE94"/>
<path d="M219.047 249.997L217.662 256.255L236.732 256.907C236.708 256.265 236.458 255.653 236.027 255.176C235.596 254.699 235.011 254.389 234.374 254.299C232.068 253.947 227.998 253.863 226.867 252.461C226.132 251.554 225.333 250.7 224.476 249.906C224.476 249.906 222.921 249.176 222.451 250.493C222.03 250.028 221.458 249.725 220.836 249.638C220.214 249.551 219.581 249.685 219.047 250.017" fill="#1C0825"/>
<path d="M225.417 139.786L224.568 248.641L220.498 249.065C214.977 238.551 203.545 205.236 213.638 196.45C213.638 196.45 185.638 161.218 207.327 142.778C219.433 132.486 225.417 139.793 225.417 139.793" fill="#FFBE94"/>
<path fill-rule="evenodd" clip-rule="evenodd" d="M197.711 144.675C197.711 144.675 192.138 165.442 190.276 208.75C190.276 208.75 215.284 219.27 230.167 208.75L225.149 140.106L197.711 144.675Z" fill="#322233"/>
<path d="M203.721 142.211L196.587 107.26C195.509 105.859 198.678 102.841 204.048 100.012C208.183 97.8347 213.632 97.4436 217.016 103.219C219.237 107.019 220.844 110.389 223.477 113.648C223.947 114.232 224.196 114.963 224.182 115.712C224.168 116.461 223.89 117.182 223.398 117.748L222.013 119.345L224.039 142.596C224.039 142.596 224.757 143.899 217.048 144.76C208.784 145.698 203.721 142.205 203.721 142.205" fill="#1C0825"/>
<path d="M214.226 95.4881L214.35 99.3078C214.448 102.332 214.122 105.363 211.43 104.868C209.261 104.47 204.864 102.072 204.048 100.012L203.29 96.2833C202.637 93.0959 204.472 90.13 207.34 89.6998L207.994 89.6086C211.149 89.1458 214.128 91.9421 214.246 95.475" fill="#FFA874"/>
<path d="M218.708 90.6646C218.724 90.7426 218.758 90.816 218.806 90.8797C218.876 91.013 218.974 91.13 219.093 91.2234C219.212 91.3167 219.349 91.3843 219.495 91.4217C219.641 91.4591 219.794 91.4656 219.943 91.4408C220.092 91.4159 220.234 91.3602 220.361 91.2773C221.373 90.6255 221.373 88.0573 222.49 87.8422H221.615C221.033 87.7249 221.36 87.0339 221.151 87.8422C221.066 88.1521 220.956 88.455 220.824 88.7482C220.696 89.0379 220.541 89.3151 220.361 89.576C220.234 89.7455 220.104 89.9085 219.969 90.0649C219.694 90.3322 219.688 90.3713 219.969 90.1888L220.851 90.1497H220.929C221.145 90.3843 221.367 90.6124 221.582 90.8406C221.582 91.6163 221.687 91.7271 221.863 91.173L222.098 90.6581C222.177 90.4886 222.255 90.3191 222.327 90.1497C222.49 89.7781 222.53 89.6934 222.451 89.8954L221.713 90.4234L221.87 90.3713H221.033L221.19 90.4169L220.445 89.9802L220.256 89.6282L220.223 88.6765C220.223 88.7417 220.223 88.8069 220.223 88.8721L220.609 88.0312L220.445 88.0768C218.936 88.4875 219.074 91.1535 220.557 91.4794C220.974 91.5649 221.406 91.5398 221.811 91.4066C222.215 91.2733 222.578 91.0366 222.862 90.7201C223.146 90.4035 223.342 90.0182 223.431 89.6024C223.519 89.1867 223.497 88.755 223.366 88.3506C222.882 86.695 220.975 86.1018 219.929 87.4837C219.462 88.1871 219.076 88.9416 218.78 89.7325C218.385 90.497 218.265 91.3737 218.44 92.2159C218.541 92.6259 218.75 93.0015 219.045 93.304C219.34 93.6065 219.711 93.8249 220.119 93.9368C220.968 94.1193 221.654 93.6369 222.262 93.0112C224.045 91.1535 226.116 86.5776 223.47 84.5374C221.915 83.325 220.282 84.4201 219.413 86.0366C218.724 87.3612 218.47 88.8687 218.688 90.3452L219.452 89.4066H219.27C218.682 89.4066 218.479 90.1171 218.701 90.6385" fill="#FFBE94"/>
<path d="M220.498 89.0154C220.622 89.1457 220.609 89.0871 220.452 88.8459C220.385 88.7527 220.341 88.6457 220.321 88.5327C220.302 88.4198 220.309 88.304 220.341 88.1941L220.374 88.0898C220.339 88.1755 220.297 88.2583 220.25 88.3375C220.099 88.5982 220.406 88.1484 220.093 88.5591L219.962 88.7221C219.714 88.9828 219.792 88.9372 220.184 88.5917L221.027 88.5591L221.171 88.6112L221.824 89.2631C221.799 89.2165 221.778 89.1687 221.759 89.1197L222.013 90.0648C221.989 90.1391 221.972 90.2155 221.961 90.293C222.02 90.1821 222.079 90.0713 222.131 89.9605C222.298 89.6254 222.43 89.2736 222.523 88.9111C222.613 88.504 222.576 88.0792 222.417 87.6937C222.258 87.3081 221.985 86.9801 221.634 86.7535C221.304 86.5574 220.913 86.4908 220.536 86.5667C220.159 86.6426 219.824 86.8555 219.596 87.1642C218.891 88.2853 218.244 89.954 219.002 91.2577C219.858 92.7112 221.497 92.3397 222.379 91.186C223.104 90.3445 223.5 89.2708 223.496 88.1615C223.385 86.3298 221.537 85.6194 220.413 86.8578C220.17 87.1723 220.045 87.5618 220.061 87.9585C220.076 88.3552 220.231 88.7338 220.498 89.0284" fill="#FFA874"/>
<path d="M221.099 85.6129C220.609 97.2741 214.207 100.911 207.817 99.4903C200.226 97.8346 195.098 89.0676 194.314 81.7736C193.53 74.4797 200.755 70.334 207.197 69.6496C213.638 68.9652 221.661 72.446 221.099 85.6129Z" fill="#FFBE94"/>
<path d="M199.383 92.3984C199.361 92.4782 199.321 92.5518 199.266 92.6135C199.08 92.8957 198.791 93.0948 198.461 93.169C198.131 93.2432 197.784 93.1866 197.495 93.0111C196.339 92.3593 196.339 89.7911 195.065 89.576H196.064C196.718 89.4586 196.358 88.7677 196.594 89.576C196.691 89.8892 196.818 90.1926 196.973 90.482C197.121 90.7732 197.296 91.0503 197.495 91.3098C197.639 91.4793 197.783 91.6423 197.939 91.7987C198.26 92.0594 198.266 92.0985 197.939 91.9225L196.927 91.8834H196.842L196.117 92.62C196.117 93.3957 195.993 93.5 195.797 92.9524L195.529 92.4375C195.444 92.268 195.352 92.0985 195.261 91.9291C195.078 91.5597 195.032 91.475 195.124 91.6749L195.966 92.2028L195.79 92.1507H196.744L196.568 92.1963L197.417 91.7531L197.632 91.4076L197.665 90.4559C197.665 90.5211 197.665 90.5863 197.665 90.6515L197.227 89.8106L197.41 89.8563C199.128 90.2669 198.978 92.9329 197.286 93.2588C195.463 93.6108 193.406 92.1507 194.078 90.13C194.201 89.7431 194.424 89.3951 194.724 89.1211C195.024 88.847 195.391 88.6565 195.788 88.5687C196.185 88.4809 196.598 88.4988 196.986 88.6207C197.374 88.7426 197.723 88.9641 197.998 89.2631C198.521 89.9585 198.96 90.7134 199.305 91.5119C199.751 92.2585 199.89 93.149 199.69 93.9954C199.553 94.4257 199.303 94.8118 198.967 95.1142C198.63 95.4166 198.219 95.6243 197.776 95.7162C197.324 95.7699 196.866 95.7137 196.441 95.5526C196.015 95.3914 195.635 95.13 195.333 94.7906C193.295 92.9329 190.936 88.3571 193.954 86.3168C195.725 85.1044 197.587 86.1995 198.58 87.816C199.358 89.1066 199.653 90.6313 199.409 92.1181L198.54 91.186H198.691C198.831 91.1941 198.967 91.2382 199.085 91.3139C199.203 91.3896 199.299 91.4945 199.365 91.6183C199.431 91.7422 199.463 91.8808 199.46 92.0209C199.456 92.161 199.416 92.2977 199.344 92.4179" fill="#FFBE94"/>
<path d="M197.338 90.7297C197.195 90.8601 197.214 90.8014 197.391 90.5602C197.468 90.4726 197.52 90.3659 197.542 90.2513C197.564 90.1366 197.554 90.0182 197.515 89.9084L197.476 89.8041C197.521 89.8889 197.567 89.9736 197.619 90.0518C197.796 90.3126 197.443 89.8628 197.802 90.2734L197.953 90.4364C198.233 90.6971 198.149 90.6515 197.698 90.306H196.731L196.574 90.3582L195.842 91.01C195.842 90.9579 195.895 90.9122 195.914 90.8666C195.816 91.186 195.725 91.5184 195.627 91.8118C195.653 91.8859 195.673 91.9622 195.686 92.0399L195.49 91.7075C195.303 91.3752 195.154 91.0232 195.045 90.658C194.956 90.2417 195.005 89.8076 195.186 89.4217C195.366 89.0358 195.668 88.7192 196.045 88.52C196.424 88.3284 196.855 88.2649 197.273 88.339C197.692 88.413 198.074 88.6207 198.364 88.9307C199.174 90.0518 199.912 91.7205 199.017 93.0242C198.044 94.4777 196.176 94.1062 195.163 92.9525C194.357 92.1502 193.899 91.0639 193.889 89.928C193.911 89.5308 194.048 89.1485 194.283 88.8272C194.518 88.506 194.841 88.2594 195.213 88.1174C195.586 87.9754 195.991 87.944 196.381 88.027C196.771 88.1101 197.128 88.3039 197.41 88.5852C197.684 88.8881 197.827 89.2864 197.809 89.6938C197.791 90.1013 197.612 90.4851 197.312 90.7623" fill="#FFA874"/>
<path d="M194.523 86.7536C194.653 86.7536 192.236 87.1773 191.72 85.6325C191.26 84.112 191.305 82.4837 191.851 80.9915C191.851 80.9915 192.602 77.1652 194.503 74.5775C196.444 71.859 199.184 69.8092 202.343 68.711C207.164 67.1336 212.991 67.1792 216.865 69.4671C217.049 69.4822 217.231 69.5149 217.408 69.5649C217.864 69.2003 218.437 69.0107 219.021 69.0304C223.712 69.239 226.142 74.245 226.208 80.5938C226.208 82.973 225.705 87.6922 220.06 82.8883C217.924 81.0697 216.963 78.2342 216.591 75.4835H216.558C216.5 75.6008 216.434 75.7182 216.369 75.8355C214.546 79.0295 211.221 81.1805 207.974 83.0708C207.974 83.0708 205.563 84.1593 203.865 84.7786C200.82 85.8867 197.606 86.9166 194.536 86.7341L194.523 86.7536ZM221.308 73.3716C220.4 72.5698 221.602 73.2412 220.001 72.6089C220.001 72.6089 222.34 76.7415 222.654 77.9539C222.902 78.8991 222.81 80.2549 221.602 80.5612C220.138 80.9002 223.392 82.5819 223.411 82.0474C223.536 79.1794 223.372 75.9333 221.804 73.9452C221.652 73.7427 221.489 73.549 221.314 73.3651L221.308 73.3716Z" fill="#322233"/>
<path d="M203.708 97.5348C203.708 97.5348 192.354 99.6402 191.753 118.661C191.152 137.681 194.19 145.907 191.753 151.135C189.316 156.362 185.024 173.949 189.558 194.442C189.558 194.442 208.503 197.369 223.862 194.442C223.862 194.442 217.146 113.694 212.103 108.401C208.966 105.048 206.147 101.413 203.682 97.5413" fill="url(#paint3_linear)"/>
<path d="M204.786 171.374C206.831 165.918 205.544 159.726 204.544 153.924C202.539 142.244 201.833 130.172 203.643 118.452C204.211 114.802 205.002 110.936 203.78 107.495C203.436 106.543 202.882 105.681 202.16 104.972C199.867 102.704 195.797 104.268 195.627 107.41C194.973 118.256 188.715 135.914 204.812 171.374" fill="#FFBE94"/>
<path d="M199.207 100.585C196.731 101.328 194.902 103.642 193.98 106.185C193.059 108.727 192.916 111.477 192.805 114.195C192.053 132.186 192.386 150.88 199.605 167.202L205.38 162.157C205.911 161.738 206.37 161.236 206.739 160.671C207.465 159.413 207.275 157.822 207.079 156.369C205.181 142.317 205.045 128.085 206.674 114C206.981 111.393 207.327 108.688 206.471 106.23C205.616 103.773 203.094 101.739 200.722 102.508" fill="white"/>
<path d="M214.239 100.051C214.239 100.051 219.76 105.018 221.719 127.428C223.679 149.838 228.703 193.301 228.703 193.301C228.703 193.301 233.126 185.76 233.041 181.366C232.956 176.973 230.591 102.208 214.239 100.051Z" fill="url(#paint4_linear)"/>
<path d="M93.5754 106.96C86.3938 109.646 79.9558 113.999 74.7932 119.658C73.5912 120.806 72.7126 122.249 72.2453 123.843C72.0203 125.058 72.0402 126.305 72.3041 127.512C73.7479 135.686 79.7255 142.576 85.9972 148.214C86.9575 149.075 88.0289 150.17 87.8395 151.421C87.4671 152.341 86.1017 151.904 85.2263 151.35L77.5631 146.52C75.1342 145.113 72.8763 143.431 70.8342 141.507C68.7698 139.421 67.2215 136.873 65.6927 134.337C64.3862 132.14 63.0012 129.866 62.5439 127.382C61.5901 122.233 64.6475 117.644 67.6592 113.798C69.3532 111.467 71.3279 109.352 73.5388 107.501C75.6801 105.886 78.1333 104.731 80.7441 104.108C83.3548 103.486 86.0665 103.409 88.7084 103.884C90.3024 104.157 92.0336 104.738 92.9679 106.159" fill="#FFFFFB"/>
<path fill-rule="evenodd" clip-rule="evenodd" d="M75.4269 180.415L68.2406 190.107C68.2406 190.107 72.3302 193.321 84.377 194.168C96.4238 195.016 103.819 192.584 105.361 190.257C106.112 189.188 84.2529 170.253 75.4269 180.415Z" fill="#ADA2B1"/>
<path d="M80.2808 238.049C74.5122 234.275 76.2696 247.612 77.9094 250.199C78.2818 250.786 79.0723 250.603 79.5426 250.199C81.0909 248.954 81.1301 246.692 81.1693 244.835C81.1693 243.837 81.1693 242.834 81.2804 241.836C81.3915 240.839 81.6789 239.803 81.4111 238.779C81.392 238.653 81.3468 238.532 81.2783 238.424C81.2098 238.316 81.1195 238.224 81.0131 238.152C80.9068 238.081 80.7867 238.033 80.6606 238.011C80.5346 237.989 80.4052 237.993 80.2808 238.023" fill="#FFA874"/>
<path d="M81.2608 247.67L82.6458 253.934L63.5695 254.586C63.5979 253.945 63.8496 253.333 64.2814 252.858C64.7131 252.382 65.2977 252.071 65.9345 251.979C68.2406 251.627 72.3106 251.542 73.4408 250.141C74.1782 249.235 74.9771 248.382 75.8319 247.586C75.8319 247.586 77.3867 246.862 77.8571 248.179C78.2783 247.714 78.8496 247.411 79.4714 247.323C80.0933 247.235 80.7265 247.367 81.2608 247.696" fill="#1C0825"/>
<path d="M76.0018 139.591C76.0018 139.591 69.5733 150.568 71.4287 169.516L76.0018 244.333L81.5156 243.981C86.9771 230.501 97.1294 202.42 87.1143 193.549C87.1143 193.549 97.5083 163.096 92.3995 141.488C87.2907 119.88 76.0018 139.591 76.0018 139.591Z" fill="#1C0725"/>
<path d="M93.4382 238.382C87.3822 235.123 90.2959 248.257 92.1316 250.688C92.5563 251.242 93.3272 250.988 93.7649 250.577C95.2021 249.196 95.0323 246.94 94.9147 245.083C94.8428 244.085 94.7644 243.088 94.7514 242.091C94.7383 241.093 94.9735 240.031 94.6076 239.034C94.5781 238.909 94.5229 238.793 94.4455 238.691C94.368 238.59 94.2702 238.506 94.1581 238.444C94.0461 238.383 93.9224 238.346 93.795 238.335C93.6677 238.324 93.5394 238.34 93.4186 238.382" fill="#FFBE94"/>
<path d="M96.071 247.599L97.3776 253.882L78.2883 254.273C78.3167 253.627 78.5726 253.011 79.0111 252.534C79.4497 252.057 80.0427 251.75 80.6859 251.666C82.992 251.347 87.0686 251.314 88.2184 249.926C88.966 249.031 89.7759 248.19 90.6421 247.41C90.6421 247.41 92.21 246.699 92.6608 248.022C93.0891 247.564 93.6648 247.27 94.2879 247.191C94.9109 247.113 95.5419 247.255 96.071 247.592" fill="#1C0825"/>
<path d="M79.9999 137.596L88.4928 243.518L94.5554 243.153C99.1938 232.222 107.177 201.032 96.3977 193.106C96.3977 193.106 120.746 156.949 97.6128 140.308C84.6906 131.078 79.9999 137.596 79.9999 137.596Z" fill="#322233"/>
<path fill-rule="evenodd" clip-rule="evenodd" d="M106.903 72.3091C106.145 69.767 101.729 59.8201 86.9771 59.781C79.1376 59.781 72.8659 66.7295 71.4548 71.0837C70.5337 73.9387 71.4548 76.8393 69.6844 79.4858C67.7898 82.3212 63.6414 82.432 63.3017 86.6559C63.0142 90.2214 68.4627 90.8276 67.8094 94.3279C67.1169 98.0498 60.3553 100.585 62.3413 104.953C63.5434 107.599 67.9401 106.908 69.6844 109.476C71.5659 112.24 68.515 116.118 72.082 118.113C75.3942 119.964 78.3928 116.607 81.7377 117.579C84.965 118.511 85.5203 122.233 89.3421 121.978C92.6085 121.75 95.1107 120.166 96.2147 117.051C96.868 115.16 97.064 112.612 98.6646 111.184C101.533 108.675 105.433 112.807 108.32 110.096C111.959 106.68 105.838 102.026 106.569 98.3627C106.903 96.707 108.856 95.7554 110.078 94.8689C112.155 93.3241 113.625 90.808 113.037 88.1746C112.912 87.4045 112.592 86.6787 112.109 86.0654C111.626 85.452 110.994 84.9711 110.274 84.6678C108.967 84.2245 107.229 84.4657 106.556 82.9861C104.76 79.049 108.157 76.5004 106.903 72.3091Z" fill="#FF7B00"/>
<path d="M95.7966 138.9L102.931 103.949C104.002 102.547 100.84 99.5229 95.4634 96.694C91.3346 94.5234 85.8861 94.1323 82.5021 99.9075C80.2809 103.701 78.6672 107.078 76.0344 110.337C75.5661 110.921 75.3175 111.65 75.3318 112.398C75.3461 113.145 75.6224 113.865 76.1128 114.43L77.5044 116.04L75.4791 139.297C75.4791 139.297 74.7605 140.601 82.4694 141.455C90.714 142.4 95.7966 138.9 95.7966 138.9Z" fill="#322233"/>
<path d="M85.272 92.1833L85.1479 96.003C85.0499 99.0275 85.3766 102.058 88.0681 101.563C90.2371 101.159 94.6011 98.7667 95.4504 96.7004L96.2082 92.9785C96.8615 89.7911 95.0257 86.8187 92.1578 86.395L91.5045 86.3038C88.3491 85.8345 85.37 88.6373 85.2524 92.1702" fill="#FFA874"/>
<path d="M77.5043 89.4978C77.4865 89.5733 77.4531 89.6444 77.4063 89.7064C77.3394 89.8391 77.2447 89.956 77.1286 90.049C77.0125 90.142 76.8777 90.209 76.7333 90.2455C76.5889 90.282 76.4384 90.2871 76.2919 90.2604C76.1454 90.2337 76.0063 90.1759 75.8842 90.0909C74.8977 89.4391 74.9173 86.8318 73.8328 86.6297L74.6821 86.6754C75.2505 86.5646 74.9434 85.8671 75.1394 86.6754C75.298 87.2939 75.5538 87.8835 75.8972 88.4223C76.0214 88.5917 76.1455 88.7547 76.2761 88.9177C76.544 89.1784 76.5505 89.2175 76.2761 89.035L75.4138 88.9894H75.3419L74.6886 89.6412C74.6886 90.4169 74.5776 90.5212 74.4143 89.9671C74.3359 89.7976 74.264 89.6281 74.1856 89.4522L73.9635 88.9437C73.8067 88.5722 73.7675 88.4809 73.8459 88.683L74.5645 89.224L74.4077 89.1653L75.2243 89.211L75.0741 89.2566L75.8058 88.8199L75.9952 88.4744V87.5227C75.9952 87.5879 75.9952 87.6531 75.9952 87.7183C75.8776 87.438 75.7535 87.1577 75.6294 86.8774L75.7862 86.9231C77.2561 87.3467 77.0928 90.0127 75.6555 90.3256C75.24 90.4004 74.8122 90.3657 74.4143 90.2248C74.0164 90.0839 73.6624 89.8418 73.3871 89.5224C73.1119 89.203 72.925 88.8174 72.8451 88.4038C72.7651 87.9901 72.7948 87.5629 72.9313 87.1642C73.4212 85.5151 75.2831 84.9415 76.2957 86.3299C76.7833 87.0472 77.1887 87.8169 77.5043 88.6243C77.8845 89.3938 77.9949 90.2683 77.8179 91.1078C77.721 91.5134 77.5164 91.8854 77.2255 92.1848C76.9347 92.4841 76.5684 92.6998 76.1651 92.8091C75.3289 92.9851 74.6625 92.4962 74.0811 91.8639C72.3433 90.0127 70.3573 85.3913 72.9313 83.3445C74.46 82.1452 76.041 83.2598 76.851 84.8828C77.5063 86.2206 77.7343 87.7268 77.5043 89.1979L76.851 88.2528H76.9817C77.5566 88.2528 77.7526 88.9698 77.5305 89.4913" fill="#FFBE94"/>
<path d="M75.1329 85.3652C78.0596 96.6679 84.867 99.0536 90.812 96.3094C97.8806 93.0502 101.265 83.325 100.52 76.031C99.7752 68.7371 91.8311 66.1884 85.3962 66.8598C78.9612 67.5312 71.8337 72.6089 75.1329 85.3652Z" fill="#FFBE94"/>
<path d="M97.1816 87.5879C97.2048 87.6672 97.2449 87.7406 97.2992 87.803C97.4871 88.0813 97.7753 88.2766 98.1039 88.3482C98.4324 88.4198 98.776 88.3623 99.0631 88.1876C100.213 87.5358 100.193 84.9285 101.461 84.7264L100.481 84.7981C99.8275 84.6873 100.18 83.9898 99.9516 84.7981C99.8535 85.1123 99.729 85.4175 99.5792 85.7107C99.433 86.0032 99.2579 86.2806 99.0566 86.5385C98.9212 86.7126 98.775 86.878 98.6189 87.0339C98.3053 87.3011 98.2987 87.3402 98.6189 87.1577L99.6249 87.1121H99.7099L100.468 87.7639C100.468 88.5331 100.592 88.6439 100.788 88.0898C100.873 87.9204 100.958 87.7444 101.049 87.5749C101.141 87.4054 101.226 87.2359 101.31 87.06C101.493 86.6906 101.539 86.6058 101.448 86.8057L100.611 87.3402L100.788 87.2881L99.834 87.3337L100.01 87.3728L99.1611 86.9426L98.939 86.5906L98.8932 85.6455C98.8932 85.7107 98.8932 85.7759 98.8932 85.841L99.3244 85.0002C99.5335 84.9415 99.4682 84.9611 99.1415 85.0393C97.4233 85.4695 97.5997 88.1355 99.2918 88.4418C101.121 88.7808 103.166 87.3011 102.473 85.287C102.348 84.9012 102.124 84.555 101.822 84.2833C101.521 84.0117 101.153 83.8241 100.755 83.7395C100.358 83.6549 99.945 83.6763 99.5585 83.8015C99.172 83.9267 98.8254 84.1513 98.5535 84.4526C98.0311 85.1532 97.5926 85.9123 97.2469 86.7145C96.8071 87.4637 96.6759 88.3541 96.8811 89.198C97.0236 89.6316 97.281 90.0186 97.626 90.3181C97.971 90.6176 98.3909 90.8184 98.841 90.8992C99.2936 90.9523 99.7524 90.8939 100.177 90.7291C100.602 90.5643 100.98 90.2982 101.278 89.9541C103.303 88.0833 105.616 83.4814 102.584 81.4412C100.801 80.2418 98.9455 81.3565 97.9721 82.9795C97.1788 84.2696 96.8708 85.799 97.1032 87.2946L97.9721 86.3495H97.8218C97.6808 86.3557 97.5439 86.3987 97.4246 86.474C97.3054 86.5493 97.2079 86.6544 97.1419 86.7789C97.0759 86.9034 97.0436 87.0429 97.0483 87.1837C97.053 87.3245 97.0944 87.4616 97.1685 87.5814" fill="#FFBE94"/>
<path d="M77.0011 69.8901C77.0251 69.8841 77.0464 69.8704 77.0616 69.8509C77.0769 69.8315 77.0851 69.8076 77.0851 69.7829C77.0851 69.7583 77.0769 69.7343 77.0616 69.7149C77.0464 69.6955 77.0251 69.6817 77.0011 69.6758C76.9771 69.6817 76.9557 69.6955 76.9405 69.7149C76.9253 69.7343 76.917 69.7583 76.917 69.7829C76.917 69.8076 76.9253 69.8315 76.9405 69.8509C76.9557 69.8704 76.9771 69.8841 77.0011 69.8901Z" fill="#C79A51"/>
<path fill-rule="evenodd" clip-rule="evenodd" d="M73.1403 83.6052C73.1403 83.4032 74.6233 82.8361 74.7736 82.7383C76.2142 81.7853 77.5577 80.6937 78.7848 79.4791C80.8231 77.6154 82.6782 75.5615 84.3248 73.3455C84.5207 73.0782 85.5856 71.0445 85.9515 71.1097C86.3173 71.1749 86.5264 71.9896 86.6635 72.2178C87.2318 73.2825 87.8873 74.2984 88.6234 75.2553C91.0798 78.1429 93.8498 81.4607 97.162 82.8687C100.474 84.2766 101.846 80.0397 101.258 76.9435C99.8732 69.5127 92.6216 64.6761 86.2977 65.3801C82.796 65.7712 79.523 67.7202 76.8184 70.321C74.2327 72.9259 72.7099 76.3967 72.5458 80.0593C72.4805 81.1087 72.2126 82.7644 72.8463 83.6313" fill="#FF7B00"/>
<path fill-rule="evenodd" clip-rule="evenodd" d="M84.0765 97.776C84.0765 97.776 82.2865 109.574 82.0056 117.983C81.7246 126.391 76.9621 183.426 76.9621 183.426L68.1884 190.049C68.1884 190.049 69.3774 147.947 73.1861 137.616C76.9948 127.284 73.957 115.577 75.2309 110.617C76.5048 105.657 84.0765 97.776 84.0765 97.776Z" fill="url(#paint5_linear)"/>
<path fill-rule="evenodd" clip-rule="evenodd" d="M95.875 95.5208C95.875 95.5208 89.8255 102.691 88.3295 115.506C86.8334 128.321 86.7028 171.563 85.0238 183.615L105.407 190.323C105.407 190.323 114.618 162.783 105.609 145.998C96.6002 129.214 100.422 117.39 100.422 117.39L104.695 103.701C104.695 103.701 104.407 99.7902 95.875 95.5208Z" fill="url(#paint6_linear)"/>
<path fill-rule="evenodd" clip-rule="evenodd" d="M94.0197 148.325L90.5115 150.502L92.7196 152.947L96.6394 151.206L94.0197 148.325Z" fill="#FFBE94"/>
<path d="M103.675 102.45C103.028 101.862 102.258 101.425 101.421 101.169C100.584 100.913 99.7001 100.845 98.8336 100.969C97.967 101.094 97.1388 101.408 96.4082 101.889C95.6777 102.371 95.0628 103.007 94.6076 103.753C93.8859 104.785 93.4488 105.987 93.3402 107.241C93.2292 110.5 94.9343 113.537 97.0052 116.04C99.0762 118.543 101.578 120.707 103.486 123.334C105.091 125.531 106.266 128.01 106.948 130.641C107.478 132.694 107.68 134.95 106.765 136.86C106.034 138.391 104.681 139.519 103.342 140.562C99.7686 143.345 96.0293 145.909 92.1447 148.241C92.5621 149.493 93.1751 150.672 93.9609 151.734C94.1557 152.066 94.4607 152.32 94.8232 152.451C95.2277 152.502 95.6375 152.415 95.9861 152.204C101.023 149.838 106.145 147.426 110.319 143.73C114.494 140.034 117.669 134.865 117.636 129.305C117.604 123.986 114.729 119.149 111.94 114.613C110.737 112.657 109.533 110.702 108.327 108.746C107.064 106.482 105.529 104.38 103.754 102.489L103.695 102.43" fill="url(#paint7_linear)"/>
<path d="M257.566 253.719L257.598 252.279L257.324 252.311L255.854 254.73C255.854 254.73 249.269 256.34 241.325 257.441L241.593 258.308L241.351 258.654L241.54 259.175L266.065 258.073L265.928 257.304C265.889 257.083 264.693 253.322 264.693 253.322L264.484 252.67L264.308 252.592L264.36 253.328L257.566 253.719Z" fill="black"/>
<path d="M248.668 143.411C248.668 143.411 249.262 179.339 249.811 189.938C250.667 206.54 256.743 256.079 256.743 256.079L264.582 255.955C264.582 255.955 263.929 211.735 265.007 196.997C265.823 185.682 266.967 146.917 266.967 146.917L248.668 143.411Z" fill="#78A1AE"/>
<path d="M261.891 146.722C261.891 146.722 270.599 187.48 273.957 199.644C277.877 213.762 289.564 256.105 289.564 256.105H296.156L282.502 145.294L261.891 146.722Z" fill="#4F8B98"/>
<path d="M295.052 253.719V252.279L295.326 252.311L296.783 254.73C296.783 254.73 303.368 256.34 311.312 257.441L311.045 258.308L311.286 258.654L311.097 259.175L286.579 258.073L286.709 257.304C286.749 257.083 287.944 253.322 287.944 253.322L288.153 252.67L288.329 252.592L288.277 253.328L295.052 253.719Z" fill="black"/>
<path d="M247.446 104.399C244.787 107.527 243.716 111.679 242.925 115.708C238.948 136.181 240.363 157.333 247.035 177.097C247.693 179.095 248.468 181.054 249.354 182.963C252.111 160.208 254.874 137.407 255.233 114.521C255.273 112.103 255.233 109.541 254.005 107.469C252.777 105.396 249.844 104.118 247.825 105.461" fill="#FFBE94"/>
<path d="M253.705 82.5363C253.705 82.5363 246.055 89.8563 240.894 120.14C238.45 134.546 239.875 169.105 239.875 169.105L253.274 169.666L253.705 82.5363Z" fill="#F8F8F3"/>
<path d="M291.354 102.332C294 105.468 295.071 109.613 295.855 113.641C299.823 134.113 298.421 155.259 291.785 175.031C291.128 177.028 290.358 178.987 289.479 180.897C286.735 158.148 283.985 135.341 283.6 112.455C283.56 110.037 283.6 107.482 284.821 105.402C286.043 103.323 288.963 102.052 290.975 103.395" fill="#FFBE94"/>
<path d="M285.128 80.4766C285.128 80.4766 292.772 87.7901 297.881 118.074C300.311 132.479 298.893 167.039 298.893 167.039L285.559 167.606L285.128 80.4766Z" fill="#F8F8F3"/>
<path d="M271.448 76.9762L253.705 82.5558L246.519 201.612L294.346 200.054L285.494 80.6394L274.904 76.8654L271.448 76.9762Z" fill="#F8F8F3"/>
<path d="M273.055 70.9337L273.264 76.3373C273.434 80.6068 265.654 95.8791 265.654 95.8791C265.654 95.8791 262.191 84.3483 261.394 80.2353L258.781 71.0184C257.899 66.4556 260.244 62.4404 264.007 62.1079L264.837 62.0362C268.92 61.6908 272.84 65.8951 273.055 70.9337Z" fill="#FFA874"/>
<path d="M253.731 61.2672L253.189 54.8141C253.189 54.8141 250.536 53.1193 249.269 56.0069C248.002 58.8945 250.922 61.7691 253.744 61.2737" fill="#FFBE94"/>
<path fill-rule="evenodd" clip-rule="evenodd" d="M257.017 44.6521C255.325 44.2415 253.058 47.2594 252.091 48.2958C248.171 52.6566 252.379 67.6942 253.737 68.4243C254.528 68.848 255.482 67.9876 255.998 67.4791C257.507 65.993 258.48 64.0049 259.388 62.1211C259.989 60.8891 260.545 59.6311 261.061 58.3601C261.496 57.2519 261.932 56.1308 262.367 54.9966C263.85 50.7337 266.176 44.1893 262.367 40.5195" fill="#FF7B00"/>
<path d="M251.791 57.5256C250.778 68.3981 253.907 75.34 256.54 75.4769C269.044 76.1287 281.934 66.8467 283.325 56.5022C284.717 46.1577 278.719 36.9343 269.946 35.911C261.172 34.8876 255.129 33.9555 253.737 44.2674C253.737 44.2674 252.281 52.2067 251.791 57.5256Z" fill="#FFBE94"/>
<path fill-rule="evenodd" clip-rule="evenodd" d="M281.986 44.4695C281.163 44.4695 272.886 51.5092 272.428 52.7151C271.233 55.8308 275.597 60.6739 276.348 64.0178C276.688 65.5561 274.284 70.1189 274.284 70.1189C274.284 70.1189 278.667 69.2976 282.45 64.2524C286.735 58.5164 285.605 54.9378 285.716 51.2811C285.808 49.0844 284.952 44.5673 281.986 44.4695Z" fill="#FF7B00"/>
<path d="M273.741 66.0254L277.785 60.2959C277.785 60.2959 281.705 59.7353 281.64 62.9032C281.574 66.0711 276.707 67.5768 273.741 66.058" fill="#FFBE94"/>
<path fill-rule="evenodd" clip-rule="evenodd" d="M275.094 51.5158C277.628 50.4989 282.665 47.1681 282.724 45.6494C282.972 39.9654 279.51 34.9398 273.924 33.8382C269.946 33.0495 263.269 34.9398 260.003 34.3075C258.304 33.9816 254.913 33.8056 253.345 32.88C253.143 32.7497 252.039 31.8371 251.791 31.9936C251.242 32.3847 251.895 34.7964 252.052 35.3114C252.104 35.4808 252.464 36.3217 252.268 36.439C251.66 36.8106 250.229 35.4808 249.785 35.018C249.599 34.8155 249.431 34.5975 249.282 34.3662C249.282 34.3662 249.092 34.0273 249.079 34.0664C248.72 34.9789 249.498 36.9475 249.733 37.8796C249.772 38.0425 250.099 39.1311 249.948 39.2354C249.798 39.3397 249.184 38.6878 249.066 38.5835C248.413 37.9317 247.799 37.1886 247.152 36.4912C247.002 36.3282 246.688 35.8915 246.466 35.9371C246.244 35.9827 246.296 36.6606 246.309 36.8692C246.343 37.9011 246.466 38.9282 246.675 39.9393C247.472 43.7395 250.732 47.0117 253.496 48.8172C260.107 53.191 268.704 54.097 275.094 51.5158Z" fill="#FF7B00"/>
<path fill-rule="evenodd" clip-rule="evenodd" d="M260.362 80.3982L260.898 77.7909L263.968 78.9577L273.055 74.3949L275.329 77.4129L268.038 84.0419L264.19 80.7307L261.342 83.892L260.362 80.3982Z" fill="#ECECED"/>
<path fill-rule="evenodd" clip-rule="evenodd" d="M261.309 80.5808L265.601 96.2768L274.199 77.9279L261.309 80.5808Z" fill="#EBEDEE"/>
<path fill-rule="evenodd" clip-rule="evenodd" d="M261.401 83.9768L263.935 79.7139L268.182 83.1946L264.262 86.4538" fill="#2F7AA6"/>
<path fill-rule="evenodd" clip-rule="evenodd" d="M265.895 83.3575L263.282 83.6118C263.243 83.9833 263.38 88.696 263.504 89.1067C263.916 90.4625 265.301 97.1893 265.399 97.2089C265.497 97.2284 269.129 89.2175 269.077 89.1393C268.704 88.5722 266.464 84.3483 265.895 83.3575Z" fill="#2F7AA6"/>
<defs>
<linearGradient id="paint0_linear" x1="147.528" y1="238.515" x2="150.069" y2="139.267" gradientUnits="userSpaceOnUse">
<stop stop-color="#2F7AA6"/>
<stop offset="1" stop-color="#004674"/>
</linearGradient>
<linearGradient id="paint1_linear" x1="-9.80275e+06" y1="1.82849e+06" x2="-9.80311e+06" y2="1.82328e+06" gradientUnits="userSpaceOnUse">
<stop stop-color="#2F7AA6"/>
<stop offset="1" stop-color="#004674"/>
</linearGradient>
<linearGradient id="paint2_linear" x1="-3.9592e+06" y1="-1.2998e+06" x2="-3.95765e+06" y2="-1.3027e+06" gradientUnits="userSpaceOnUse">
<stop stop-color="#2F7AA6"/>
<stop offset="1" stop-color="#004674"/>
</linearGradient>
<linearGradient id="paint3_linear" x1="219.477" y1="113.639" x2="197.7" y2="190.218" gradientUnits="userSpaceOnUse">
<stop stop-color="#FDFFFF"/>
<stop offset="1" stop-color="#F4F2E8"/>
</linearGradient>
<linearGradient id="paint4_linear" x1="3.37314e+06" y1="-2.98526e+06" x2="3.37419e+06" y2="-2.98387e+06" gradientUnits="userSpaceOnUse">
<stop stop-color="#FDFFFF"/>
<stop offset="1" stop-color="#F4F2E8"/>
</linearGradient>
<linearGradient id="paint5_linear" x1="4.9741e+06" y1="-1.50385e+06" x2="4.97448e+06" y2="-1.5022e+06" gradientUnits="userSpaceOnUse">
<stop stop-color="#FDFFFF"/>
<stop offset="1" stop-color="#F4F2E8"/>
</linearGradient>
<linearGradient id="paint6_linear" x1="6.71432e+06" y1="-1.94471e+06" x2="6.71491e+06" y2="-1.94135e+06" gradientUnits="userSpaceOnUse">
<stop stop-color="#FDFFFF"/>
<stop offset="1" stop-color="#F4F2E8"/>
</linearGradient>
<linearGradient id="paint7_linear" x1="1.91151e+06" y1="-912278" x2="1.91198e+06" y2="-910376" gradientUnits="userSpaceOnUse">
<stop stop-color="#FDFFFF"/>
<stop offset="1" stop-color="#F4F2E8"/>
</linearGradient>
</defs>
</svg>
