<svg width="375" height="324" viewBox="0 0 375 324" fill="none" xmlns="http://www.w3.org/2000/svg">
<rect width="375" height="324" fill="#C0D5FF" fill-opacity="0.6"/>
<g opacity="0.3">
<path opacity="0.3" d="M178.595 256.671C170.381 255.932 162.093 255.795 153.469 256.962C150.302 257.391 147.187 258.332 144.024 258.713C123.905 261.117 103.637 257.007 83.5247 255.389C73.6921 254.591 63.3643 255.271 54.2929 259.4C49.4487 261.615 38.5703 264.592 37.2955 270.301C33.7446 286.336 61.7607 287.618 70.9577 287.994C96.3836 289.039 123.505 287.573 148.407 292.655C157.434 294.501 169.066 296.481 178.211 294.453C189.936 291.868 199.085 288.493 211.315 288.375C223.409 288.257 235.481 289.139 247.527 289.963C271.294 291.588 295.648 293.242 318.883 286.776C323.749 285.42 334.369 282.536 336.472 277.263C340.555 267.033 318.639 261.383 312.871 260.969C286.573 259.023 260.844 257.121 234.576 258.705C226.421 259.197 217.989 261.719 209.985 261.084C199.499 260.249 189.123 257.623 178.595 256.671Z" fill="white"/>
</g>
<path d="M182.135 30.0187C176.26 29.7121 168.977 33.1134 167.355 38.2503C165.456 33.2205 156.351 30.3695 150.517 31.0268C135.082 32.7736 130.371 50.4518 137.281 62.0477C141.002 68.2814 146.241 73.6695 151.928 78.4814C156.687 82.5104 168.925 90.9895 168.944 90.9562C168.981 90.9858 180.672 81.7829 185.184 77.4732C190.571 72.3289 195.478 66.6307 198.819 60.1828C205.03 48.188 197.647 30.8311 182.135 30.0187Z" fill="#D67086"/>
<g style="mix-blend-mode:multiply" opacity="0.12">
<g style="mix-blend-mode:multiply" opacity="0.12">
<path d="M195.519 61.4975C191.758 66.409 187.473 70.8955 182.738 74.8771C178.159 78.7067 172.761 82.0858 166.749 83.3414C163.969 83.9381 161.096 83.962 158.306 83.4116C163.372 87.1304 168.833 90.9341 168.859 90.9009C168.885 90.8676 180.587 81.7276 185.099 77.4179C190.486 72.2736 195.393 66.5753 198.734 60.1274C199.803 58.0505 200.492 55.7993 200.77 53.4801C199.229 56.2839 197.473 58.9643 195.519 61.4975V61.4975Z" fill="black"/>
</g>
</g>
<path d="M206.852 65.0834C206.795 64.2508 206.417 63.4729 205.796 62.9146C205.176 62.3563 204.362 62.0615 203.528 62.0928C202.694 62.124 201.904 62.4788 201.327 63.0819C200.75 63.685 200.431 64.489 200.437 65.3234V65.3234L198.782 79.1573C198.59 80.7699 198.071 82.3264 197.256 83.7312C196.44 85.136 195.346 86.3593 194.041 87.3261L184.375 94.4609L190.682 84.1723C190.79 84.027 190.885 83.8726 190.967 83.7107C191.257 83.0928 191.324 82.3936 191.156 81.7319C190.989 81.0702 190.598 80.4869 190.049 80.0809C189.5 79.675 188.827 79.4715 188.145 79.5051C187.463 79.5387 186.813 79.8072 186.307 80.2652L176.995 89.3831C175.008 91.3343 173.448 93.6776 172.415 96.264C171.383 98.8503 170.9 101.623 170.998 104.406L171.216 110.684C171.271 112.196 171.771 113.657 172.652 114.886C173.534 116.116 174.759 117.057 176.174 117.594C177.588 118.131 179.13 118.239 180.606 117.905C182.082 117.57 183.426 116.808 184.471 115.714L203.822 98.5269C205.099 97.3951 206.11 95.9951 206.783 94.4271C207.456 92.8591 207.773 91.1619 207.713 89.4569L206.859 65.0834H206.852Z" fill="#F7F7F7"/>
<path d="M129.421 67.7977C129.393 66.9476 129.704 66.121 130.285 65.4997C130.866 64.8785 131.671 64.5135 132.522 64.4851C133.372 64.4567 134.199 64.7672 134.821 65.3483C135.442 65.9293 135.808 66.7334 135.836 67.5835V67.5835L138.456 81.2696C138.759 82.8658 139.387 84.3829 140.299 85.7275C141.212 87.0721 142.39 88.2156 143.762 89.0877L153.901 95.5319L146.881 85.7123C146.762 85.5728 146.656 85.4233 146.563 85.2654V85.2654C146.307 84.8241 146.171 84.3242 146.166 83.8143C146.161 83.3045 146.288 82.8021 146.535 82.356C146.782 81.9099 147.141 81.5352 147.575 81.2685C148.01 81.0018 148.507 80.8521 149.016 80.8339C149.726 80.8093 150.421 81.0429 150.971 81.4912V81.4912L160.889 89.9481C163.005 91.7576 164.722 93.9871 165.931 96.4951C167.14 99.0031 167.813 101.735 167.909 104.517L168.127 110.795C168.177 112.201 167.839 113.593 167.152 114.821C166.464 116.049 165.452 117.064 164.227 117.757C163.002 118.45 161.61 118.793 160.203 118.75C158.796 118.707 157.428 118.279 156.248 117.512C155.898 117.284 155.567 117.028 155.257 116.748L134.75 100.953C133.401 99.9131 132.298 98.5885 131.519 97.0738C130.74 95.5591 130.306 93.8915 130.245 92.1897L129.396 67.8162L129.421 67.7977Z" fill="#F7F7F7"/>
<path d="M77.1027 69.851C72.0183 71.1472 66.701 75.9259 66.6678 80.6603C63.7117 76.9489 55.2463 76.9673 50.439 79.0612C37.7464 84.6007 38.3339 100.68 47.239 108.564C52.0426 112.808 57.8957 115.95 63.9888 118.469C69.0917 120.589 81.7068 124.463 81.7252 124.429C81.7437 124.396 89.326 113.631 92.0456 108.827C95.2973 103.084 97.991 97.009 99.1586 90.731C101.331 79.028 90.5269 66.4276 77.1027 69.851Z" fill="#D67086"/>
<path d="M243.293 142.358C243.293 142.358 225.848 150.889 220.597 147.706C219.932 147.303 204.387 141.158 204.387 141.158L201.184 144.726L219.046 156.912L224.984 157.917L239.982 153.622L243.293 142.358Z" fill="#5D66D3"/>
<path d="M254.88 143.913C254.88 143.913 264.961 160.502 271.098 160.653C271.878 160.676 288.295 163.881 288.295 163.881L289.067 168.615L267.447 169.225L261.905 166.872L251.599 155.192L254.88 143.913Z" fill="#5D66D3"/>
<path d="M252.667 142.665L252.892 142.75C256.425 144.116 259.211 150.273 260.807 153.892C264.931 163.231 266.742 172.97 267.089 183.299C267.274 188.864 267.218 194.433 267.052 200.002C267.008 201.538 265.7 215.309 266.383 215.638C259.363 212.277 252.257 209.105 244.808 207.192C237.358 205.279 229.514 204.677 221.994 206.431C224.248 188.953 227.537 171.164 232.281 154.268C232.85 152.248 233.231 150.095 234.073 148.179C235.045 145.963 236.512 145.32 238.36 144.013C238.976 143.547 239.635 143.142 240.329 142.802C244.002 141.158 248.946 141.295 252.667 142.665Z" fill="#5D66D3"/>
<path d="M263.534 197.653L255.579 230.196L255.442 254.17L251.551 255.02L249.988 232.725L246.09 191.896L263.534 197.653Z" fill="#DEC9AD"/>
<path d="M251.503 255.692L250.879 258.126L251.44 262.897H254.596L255.764 255.998L255.394 254.843L251.503 255.692Z" fill="#292949"/>
<path d="M232.913 194.115L232.255 222.226L236.083 261.915L239.93 262.192L241.242 225.794L249.009 192.786L232.913 194.115Z" fill="#DEC9AD"/>
<path d="M236.205 261.253L231.032 264.008L231.446 266.427L240.592 265.29L240.144 261.811L236.205 261.253Z" fill="#292949"/>
<path d="M231.79 197.746L229.248 230.225L231.941 252.49L242.35 251.881L244.157 226.558L248.61 198.946L247.9 194.647L232.895 194.895L231.79 197.746Z" fill="#3B3387"/>
<path d="M247.634 227.825L248.902 251.116L257.951 250.636L257.722 228.545L263.379 200.792L262.06 193.041L246.844 194.016L247.634 227.825Z" fill="#3B3387"/>
<path d="M226.443 198.337C235.762 199.74 251.267 200.796 260.582 202.199C261.055 185.367 259.359 165.931 255.265 149.648C254.526 146.694 253.417 143.507 250.831 142.008C248.059 140.398 242.192 140.63 240.507 143.766C238.046 148.352 237.573 155.646 236.479 160.753C234.018 172.294 227.969 186.626 226.443 198.337Z" fill="white"/>
<path d="M240.906 128.938C243.363 122.376 251.621 125.013 253.122 130.925C254.101 134.821 250.975 139.788 247.054 140.76C247.132 141.723 247.165 142.691 247.158 143.655L244.013 143.33C243.688 143.297 243.311 143.23 243.16 142.938C243.088 142.754 243.071 142.552 243.112 142.359L243.344 140.376L243.119 140.261C241.271 139.275 240.163 137.203 239.901 135.113C239.638 133.023 240.167 130.91 240.906 128.938Z" fill="#EAC1A4"/>
<path d="M241.46 130.929C240.059 132.801 240.326 135.379 240.577 137.595C240.802 139.556 240.702 140.767 238.544 140.549C237.329 140.431 235.167 140.246 234.461 139.053C233.933 138.149 235.027 136.269 235.659 135.586C236.143 135.065 236.981 134.999 237.451 134.478C237.634 134.248 237.771 133.985 237.854 133.702C238.246 132.571 238.466 131.387 238.508 130.19C238.479 129.378 238.532 128.565 238.666 127.764C238.944 126.623 240.163 125.585 240.917 124.703C242.317 123.055 245.846 121.379 247.594 123.635C247.952 124.185 248.148 124.825 248.159 125.482C248.217 125.865 248.197 126.255 248.1 126.63C247.631 128.107 246.215 127.897 245.063 128.285C243.627 128.793 242.374 129.712 241.46 130.929Z" fill="#292949"/>
<path d="M251.954 134.803C251.692 135.863 250.764 136.83 251.045 137.89C251.226 138.342 251.475 138.765 251.784 139.142C252.135 139.71 252.334 140.358 252.362 141.025C252.39 141.692 252.245 142.355 251.943 142.949L258.224 144.777C258.532 144.896 258.866 144.934 259.193 144.888C259.88 144.733 260.179 143.939 260.364 143.26C260.733 141.923 261.103 140.483 260.615 139.179C260.393 138.577 260.005 138.045 259.787 137.44C258.738 134.533 261.86 131.084 260.29 128.421C259.592 127.232 258.18 126.693 257.138 125.792C255.32 124.219 254.662 121.571 252.745 120.12C249.123 117.376 243.507 121.032 244.723 125.471C245.713 129.093 253.003 130.526 251.954 134.803Z" fill="#292949"/>
<path d="M252.423 143.171C252.423 143.171 255.468 184.961 248.987 193.214C242.506 201.468 239.749 204.578 239.749 204.578L266.383 215.634C266.383 215.634 265.663 154.686 252.423 143.171Z" fill="#5D66D3"/>
<path d="M133.929 141.897C133.929 141.897 118.177 153.249 112.465 151C111.726 150.716 95.3675 147.278 95.3675 147.278L92.8142 151.34L112.483 160.328H118.506L132.547 153.559L133.929 141.897Z" fill="#2454EA"/>
<path d="M88.029 127.214C88.029 127.214 90.4567 128.425 90.8853 134.814C91.3139 141.203 92.8031 145.117 92.8031 145.117C92.8031 145.117 90.9001 146.561 89.1375 145.945C87.375 145.328 86.7579 145.265 86.769 142.621C86.7801 139.977 85.2429 127.771 85.2429 127.771L88.029 127.214Z" fill="#292949"/>
<path d="M83.4176 130.449C84.6662 130.528 85.8642 130.971 86.8637 131.723C87.8631 132.475 88.6203 133.504 89.0415 134.681C89.5496 133.935 89.8714 133.079 89.98 132.183C90.0886 131.288 89.9807 130.379 89.6655 129.534C89.3503 128.689 88.8368 127.931 88.1683 127.325C87.4997 126.719 86.6955 126.282 85.8231 126.05C84.5358 127.171 83.7398 128.752 83.606 130.452L83.4176 130.449Z" fill="#292949"/>
<path d="M80.3692 147.507L63.5528 147.58L65.7847 121.264L60.5118 120.422L51.215 150.62L58.8749 157.707L78.0117 160.321L80.3692 147.507Z" fill="#474EBB"/>
<path d="M73.2819 260.175L73.0011 262.443L77.0657 265.367L79.5192 263.429L77.6236 260.829L73.5591 257.904L73.2819 260.175Z" fill="#292949"/>
<path d="M74.8966 190.659L74.0468 197.55L79.7187 221.41L73.1415 259.411L77.3428 260.958L89.3038 223.98L91.3102 213.193L91.7462 190.267L74.8966 190.659Z" fill="#292949"/>
<path d="M107.262 199.064L96.9749 262.753L92.9287 262.664L93.0913 221.702L86.3589 192.797L107.262 199.064Z" fill="#292949"/>
<path d="M92.9657 262.158L92.9139 264.455L97.2372 266.845L99.4727 264.596L97.3369 262.254L92.9657 262.158Z" fill="#292949"/>
<path d="M72.4727 192.007C75.9756 171.522 75.207 156.536 75.4546 152.429C75.5171 151.24 75.8259 150.077 76.3614 149.014C76.897 147.95 77.6476 147.009 78.5659 146.251C79.8111 145.996 80.9048 145.206 82.1612 144.91C90.6599 142.92 95.1124 149.619 98.1202 156.809C101.823 165.684 104.904 174.805 107.339 184.107C109.486 192.273 111.633 200.515 112.424 208.957C112.753 212.444 113.015 215.745 109.265 217.196C103.29 219.512 96.6348 219.313 90.3643 219.962C83.1588 220.701 75.9534 221.207 68.7111 221.358C64.9125 221.436 68.955 212.488 72.4727 192.007Z" fill="#474EBB"/>
<path d="M62.3481 120.773L60.338 116.77L63.1167 111.822L66.0174 112.782L65.3448 117.671L66.5236 119.041L65.7846 121.264L62.3481 120.773Z" fill="#EAC1A4"/>
<path d="M86.2406 144.578L94.2959 146.192L110.488 162.537L129.735 162.238L130.685 168.191L108.13 171.655L89.8729 159.394L86.2406 144.578Z" fill="#474EBB"/>
<path d="M88.2249 145.051L89.2373 166.935L78.481 145.919L81.777 144.822L84.127 144.175L88.2249 145.051Z" fill="#E0E0E1"/>
<path d="M129.917 163.722L133.504 161.603L138.02 162.836L137.968 165.266L130.364 166.529L129.917 163.722Z" fill="#EAC1A4"/>
<path d="M88.8937 132.513C86.2369 126.386 78.4994 129.293 77.3798 134.987C76.7406 138.23 78.3442 143.921 82.2278 144.057C82.4125 144.611 82.7266 145.656 83.2439 145.937C83.7612 146.218 85.1912 145.52 85.7418 145.254C85.8998 145.193 86.0378 145.089 86.1409 144.955C86.2263 144.621 86.2095 144.27 86.0928 143.946C86.5295 143.815 86.9479 143.629 87.3381 143.393C89.0563 142.366 90.0133 140.342 90.1463 138.341C90.2794 136.339 89.6881 134.352 88.8937 132.513Z" fill="#EAC1A4"/>
<path d="M85.6678 126.062C85.6678 126.062 87.2234 129.359 83.0037 131.32C78.7839 133.281 76.6851 137.406 78.2776 140.896C79.8702 144.386 83.7574 146.347 82.2388 147.702C80.7201 149.058 74.1355 149.527 74.1355 149.527C74.1355 149.527 67.3661 137.465 71.3124 130.715C75.2588 123.964 82.7376 122.062 85.6678 126.062Z" fill="#292949"/>
<path d="M219.13 260.914L219.493 263.669L214.342 267.14L211.227 264.743L213.621 261.634L218.772 258.159L219.13 260.914Z" fill="#454A5E"/>
<path d="M219.304 259.987L215.262 224.87L219.973 185.54L218.879 177.179L197.507 176.408L196.76 190.024L200.415 224.952L213.98 261.793L219.304 259.987Z" fill="#292949"/>
<path d="M181.829 180.374L181.84 215.819L189.064 261.434L194.204 261.372L196.949 219.172L203.478 176.925L181.829 180.374Z" fill="#292949"/>
<path d="M194.2 263.539L188.676 266.383L185.864 263.635L188.609 260.829L194.167 260.762L194.2 263.539Z" fill="#454A5E"/>
<path d="M222.197 192.35C222.146 190.818 222.057 189.532 222.046 189.078C221.928 184.957 221.551 180.847 221.026 176.755C220.557 173.091 219.958 163.988 219.323 160.347C218.798 157.341 216.98 149.833 215.668 147.052C212.409 140.121 213.411 139.478 199.151 137.451C192.903 136.561 191.432 140.453 186.333 144.94C185.83 145.383 185.864 148.009 185.745 148.707C185.542 149.933 185.324 151.155 185.073 152.374C184.877 153.33 184.659 154.287 184.415 155.232C184.415 155.232 180.166 174.746 177.335 178.893C174.505 183.04 168.659 188.842 178.466 192.358C180.193 192.951 181.963 193.409 183.761 193.728C183.761 193.728 191.776 192.823 195.896 192.849C199.699 192.882 203.493 193.228 207.24 193.883C209.734 194.293 212.284 194.895 214.519 196.054C216.651 197.162 218.188 198.798 220.354 199.943C220.549 200.074 220.78 200.14 221.015 200.131C222.257 199.943 222.305 195.585 222.197 192.35Z" fill="#D67086"/>
<path d="M199.14 139.393C199.857 139.762 201.557 139.873 203.327 139.175C203.501 139.107 203.651 138.987 203.756 138.833C203.862 138.678 203.918 138.495 203.918 138.307C203.903 137.232 203.814 136.158 203.652 135.095C204.978 134.625 206.512 133.924 206.741 132.535C206.789 132.093 206.763 131.646 206.663 131.213C206.346 129.409 206.029 127.604 205.714 125.799C205.646 125.167 205.454 124.555 205.148 123.997C204.55 123.059 203.393 122.649 202.296 122.461C199.499 121.981 196.45 122.594 194.285 124.429C193.685 124.897 193.219 125.513 192.932 126.217C192.544 127.325 192.84 128.521 193.139 129.647C193.413 130.689 193.687 131.728 193.963 132.764C194.277 133.961 194.736 135.32 195.888 135.767C196.502 136.003 197.222 135.933 197.78 136.284C198.756 136.9 198.626 138.355 199.14 139.393Z" fill="#AA6755"/>
<path d="M182.956 121.416C182.682 120.966 182.38 120.534 182.05 120.123C181.33 119.241 180.447 118.487 179.867 117.505C179.286 116.523 179.083 115.197 179.774 114.292C180.268 113.742 180.924 113.361 181.648 113.206C183.985 112.519 186.464 112.468 188.827 113.059C191.063 113.624 193.065 114.562 195.312 113.72C197.426 112.926 198.952 113.243 201.165 114.026C203.556 114.876 206.767 115.071 208.925 116.272C209.819 116.802 210.57 117.54 211.116 118.425C212.073 119.946 212.584 121.705 212.592 123.502C212.6 125.298 212.104 127.062 211.16 128.591C210.723 129.263 210.229 129.896 209.682 130.482C208.555 131.704 207.21 133.219 205.658 133.673C205.618 132.288 206.874 127.908 205.806 126.774C204.11 124.972 200.286 125.611 198.187 126.058C195.9 126.545 193.864 128.17 191.595 128.521C189.962 128.772 187.874 127.978 186.484 127.136C184.766 126.099 183.964 123.063 182.956 121.416Z" fill="#292949"/>
<path d="M153.399 146.177L148.976 143.345L150.103 141.402L153.561 142.672L153.672 141.506L157.16 144.393L156.259 146.569L153.399 146.177Z" fill="#AA6755"/>
<path d="M194.747 138.093L171.715 147.58L157.16 144.393L155.745 147.174L169.033 156.916L187.32 154.704L194.747 138.093Z" fill="#D67086"/>
<path d="M233.516 108.764L233.981 103.006L231.528 102.696L230.334 106.57L229.24 105.887L229.443 110.865L231.952 111.526L233.516 108.764Z" fill="#AA6755"/>
<path d="M205.961 144.02L220.886 129.267L229.444 110.865L232.825 111.482L229.602 133.728L214.331 155.491L205.961 144.02Z" fill="#D67086"/>
<path d="M130.796 263.406L130.674 265.818L135.381 268.469L137.913 266.176L135.618 263.646L130.914 260.995L130.796 263.406Z" fill="#292949"/>
<path d="M126.824 190.253L126.462 197.572L134.657 229.79L130.582 262.616L135.319 263.813L148.392 224.35L148.606 212.484L145.295 188.096L126.824 190.253Z" fill="#394860"/>
<path d="M162.843 189.492L166.546 220.084L165.09 260.205L160.648 260.688L153.861 224.556L143.799 188.779L162.843 189.492Z" fill="#394860"/>
<path d="M160.878 262.561L165.944 264.433L168.083 261.774L165.419 259.636L160.615 260.16L160.878 262.561Z" fill="#292949"/>
<path d="M164.628 184.396C160.035 175.093 158.191 164.889 155.76 154.852C155.047 151.897 154.308 148.866 152.652 146.306C150.753 143.37 148.137 142.056 145.236 141.553C141.541 140.918 137.406 141.594 133.715 141.923C131.498 148.902 130.02 144.947 127.433 151.79C126.89 153.208 125.372 165.488 124.803 166.898C124.803 166.898 118.809 185.773 120.767 200.689C120.767 200.837 120.804 200.981 120.819 201.125C121.211 201.191 121.584 201.258 121.928 201.328C127.137 202.391 132.445 202.895 137.761 202.831C142.479 202.771 147.174 202.171 151.754 201.043C158.014 199.481 165.452 200.102 170.562 195.966C169.059 192.919 166.136 187.446 164.628 184.396Z" fill="#2454EA"/>
<path d="M167.229 114.569L167.026 109.321L164.78 109.31L164.122 112.933L163.061 112.435L163.782 116.903L166.117 117.232L167.229 114.569Z" fill="#2454EA"/>
<path d="M145.754 141.206L159.156 131.062L163.782 116.903L166.901 117.095L168.567 133.481L154.297 153.818L145.754 141.206Z" fill="#2454EA"/>
<path d="M130.777 129.854C132.651 123.945 141.223 121.77 143.315 128.591C143.947 130.641 144.335 132.816 143.958 134.928C143.581 137.041 142.317 139.072 140.362 139.962H140.329L140.584 141.598C140.616 141.712 140.605 141.835 140.551 141.941C140.505 141.994 140.448 142.035 140.384 142.064C140.32 142.093 140.251 142.108 140.181 142.107L138.227 142.425C137.908 142.501 137.577 142.501 137.259 142.425C136.571 142.214 136.279 141.402 136.239 140.689C136.239 140.519 136.239 140.346 136.239 140.172C132.366 138.943 129.551 133.724 130.777 129.854Z" fill="#AA6755"/>
<path d="M142.609 120.127C144.202 120.042 145.391 121.689 146.762 122.623C147.904 123.403 149.253 123.709 150.457 124.378C151.662 125.046 152.771 126.309 152.674 127.749C154.001 127.21 155.435 126.667 156.824 127.073C158.213 127.48 159.37 129.289 158.672 130.637C158.047 131.837 156.388 131.978 155.716 133.152C154.674 134.999 156.706 138.252 155.002 139.389C154.592 139.666 154.068 139.692 153.665 139.973C153.162 140.342 152.948 140.992 152.686 141.579C151.488 144.231 148.554 145.76 145.857 145.136C145.03 144.615 144.316 143.934 143.757 143.132C143.198 142.33 142.807 141.424 142.605 140.468C142.092 138.134 143.378 137.458 143.784 135.349C144.222 132.998 143.737 130.568 142.428 128.565C141.589 127.299 140.318 126.158 138.892 125.884C138.308 125.77 138.448 126.276 137.831 125.762C137.509 125.372 137.293 124.905 137.203 124.407C138.899 123.288 140.518 120.238 142.609 120.127Z" fill="#292949"/>
<path d="M125.719 121.449C124.887 121.597 124.012 121.479 123.21 121.745C122.002 122.143 121.961 123.351 121.532 124.363C121.059 125.471 120.387 126.985 119.537 127.808C118.927 128.407 118.125 128.702 117.409 129.138C116.692 129.574 116.004 130.246 115.931 131.154C115.857 132.063 116.367 132.831 116.367 133.688C116.348 134.969 116.067 135.597 116.337 136.934C116.477 137.624 116.636 138.355 117.094 138.858C117.7 139.522 118.646 139.596 119.489 139.541C120.331 139.486 121.211 139.33 122.002 139.685C123.72 140.449 123.217 142.211 123.546 143.747C124.049 146.1 126.576 147.688 128.682 147.071C130.467 146.543 131.638 144.641 131.76 142.661C131.816 141.672 131.509 140.715 131.576 139.726C131.642 138.736 132.315 137.51 131.509 136.664C131.291 136.49 131.082 136.304 130.885 136.106C130.754 135.913 130.675 135.689 130.655 135.456C130.598 135.061 130.628 134.658 130.743 134.275C130.857 133.892 131.055 133.539 131.321 133.241C131.69 132.838 132.204 132.565 132.459 132.063C132.751 131.487 132.632 130.77 132.654 130.102C132.672 129.328 132.915 128.577 133.355 127.94C133.794 127.303 134.41 126.808 135.126 126.516C136.043 126.191 136.859 126.028 137.683 125.482C137.809 125.397 139.705 124.005 139.719 124.355C139.653 123.771 139.442 123.213 139.106 122.731C138.658 121.896 138.045 121.162 137.303 120.574C134.872 118.846 134.421 122.28 132.4 121.63C131.912 121.475 131.579 120.984 131.158 120.67C130.36 120.075 129.31 120.16 128.398 120.463C127.485 120.766 126.654 121.279 125.719 121.449Z" fill="#292949"/>
<path d="M295.604 65.4822C290.405 64.7768 283.68 67.2068 281.869 71.583C280.543 67.0369 272.676 63.861 267.429 64.005C253.583 64.3743 248.085 79.5155 253.388 90.1438C256.233 95.8753 260.49 100.983 265.186 105.614C269.118 109.495 279.353 117.823 279.386 117.8C279.419 117.778 290.49 110.647 294.817 107.216C299.99 103.117 304.771 98.4973 308.215 93.1056C314.604 83.0902 309.327 67.3508 295.604 65.4822Z" fill="#D67086"/>
<path d="M272.997 118.69L269.901 115.455L271.102 109.909L274.158 109.975L274.952 114.846L276.482 115.81L276.43 118.151L272.997 118.69Z" fill="#AA6755"/>
<path d="M295.696 147.329L300.3 147.119C300.381 145.897 300.364 144.671 300.249 143.452C300.249 143.599 302.713 142.303 302.931 142.008C303.556 141.162 303.626 139.744 303.885 138.736C304.435 136.594 304.949 134.182 303.814 132.284C302.639 130.32 300.101 129.651 297.81 129.596C294.935 129.526 291.724 130.368 290.25 132.838C288.916 135.054 290.619 138.352 291.096 140.708C291.332 141.867 291.698 143.193 292.781 143.681C293.354 143.939 294.048 143.91 294.562 144.275C295.464 144.922 295.264 146.306 295.696 147.329Z" fill="#AA6755"/>
<path d="M285.708 128.602L285.187 123.835C285.079 123.25 285.101 122.649 285.25 122.073C285.564 121.135 286.514 120.552 287.467 120.289C288.421 120.027 289.422 120.02 290.386 119.806C291.417 119.577 292.419 119.119 293.472 119.163C295.475 119.244 297.008 121.098 298.989 121.412C301.73 121.844 304.247 120.585 305.906 123.805C306.212 124.396 306.297 125.079 306.567 125.688C306.915 126.475 307.546 127.096 308.045 127.797C310.218 130.896 309.523 135.6 306.903 138.23C305.632 139.508 305.115 140.66 303.36 141.07C304.158 139.437 303.086 132.945 300.884 132.207C300.3 132.015 298.553 132.731 297.928 132.827C296.504 132.986 295.105 133.322 293.764 133.828C291.753 134.686 289.619 135.221 287.441 135.412C287.312 135.459 287.172 135.471 287.037 135.448C286.901 135.425 286.773 135.367 286.667 135.28C286.56 135.193 286.477 135.08 286.427 134.951C286.377 134.823 286.361 134.684 286.381 134.548C286.159 132.554 285.935 130.572 285.708 128.602Z" fill="#292949"/>
<path d="M320.298 264.507L320.919 267.096L316.359 270.925L313.148 268.961L315.118 265.748L319.677 261.915L320.298 264.507Z" fill="#292949"/>
<path d="M309.667 184.392L311.556 192.258L309.246 228.848L320.368 263.606L315.476 265.866L293.25 225.757L290.593 212.935L289.204 185.821L309.667 184.392Z" fill="#5D66D3"/>
<path d="M278.987 187.572L278.658 221.558L285.147 265.368L290.076 265.36L293.113 224.919L299.779 184.469L278.987 187.572Z" fill="#5D66D3"/>
<path d="M290.047 264.773L290.05 267.435L284.726 270.109L282.058 267.45L284.718 264.784L290.047 264.773Z" fill="#292949"/>
<path d="M315.546 194.001C315.62 197.103 315.546 201.283 314.338 201.439C314.113 201.444 313.892 201.378 313.706 201.25C311.641 200.142 310.181 198.551 308.164 197.465C306.031 196.331 303.593 195.733 301.202 195.312C297.617 194.647 293.984 194.277 290.338 194.204C287.47 194.209 284.604 194.358 281.751 194.651C279.383 194.854 277.177 195.559 274.764 195.389C272.279 195.224 269.872 194.464 267.743 193.174C267.661 193.134 267.594 193.067 267.555 192.985C267.529 192.889 267.54 192.787 267.584 192.697C268.087 191.312 268.449 189.939 269.365 188.79C270.389 187.509 271.113 185.88 271.852 184.421C273.436 181.37 274.795 178.206 275.917 174.956C277.539 170.554 279.394 166.267 280.964 161.85C282.05 158.788 283.041 155.675 284.519 152.773C285.675 150.498 287.737 147.178 290.228 146.173C291.091 145.884 291.999 145.749 292.91 145.774L301.184 145.52C302.189 145.49 303.231 145.464 304.14 145.889C305.51 146.506 306.29 147.946 306.97 149.29C309.978 155.34 312.037 161.817 313.074 168.494C313.651 171.995 314.183 175.51 314.597 179.019C315.059 182.944 315.38 186.888 315.454 190.836C315.439 191.298 315.509 192.527 315.546 194.001Z" fill="#3B3387"/>
<path d="M283.273 157.079L267.51 144.238L271.412 117.132L277.439 117.099L276.578 140.593L290.523 147.377L283.273 157.079Z" fill="#3B3387"/>
<path d="M286.433 198.761C293.729 188.147 291.035 173.631 280.415 166.339C269.794 159.046 255.27 161.739 247.973 172.354C240.677 182.968 243.372 197.484 253.992 204.776C264.612 212.068 279.137 209.375 286.433 198.761Z" fill="#BABCBE"/>
<path opacity="0.1" d="M268.186 160.148C263.16 159.953 258.188 161.252 253.901 163.881C249.613 166.51 246.202 170.351 244.098 174.917C241.994 179.484 241.293 184.572 242.082 189.537C242.872 194.502 245.117 199.121 248.534 202.811C251.95 206.501 256.385 209.096 261.277 210.267C266.169 211.438 271.298 211.132 276.017 209.39C280.735 207.647 284.831 204.545 287.785 200.476C290.739 196.407 292.42 191.554 292.615 186.53C292.744 183.195 292.215 179.866 291.058 176.735C289.9 173.604 288.137 170.732 285.868 168.282C283.6 165.832 280.871 163.853 277.837 162.457C274.803 161.061 271.524 160.277 268.186 160.148V160.148ZM266.38 206.679C262.197 206.517 258.157 205.118 254.77 202.661C251.383 200.204 248.801 196.798 247.35 192.874C245.9 188.95 245.647 184.684 246.622 180.617C247.597 176.549 249.758 172.861 252.83 170.02C255.902 167.18 259.749 165.313 263.882 164.657C268.016 164.001 272.251 164.585 276.053 166.335C279.855 168.085 283.052 170.922 285.24 174.488C287.428 178.053 288.51 182.188 288.347 186.368C288.129 191.972 285.692 197.261 281.572 201.07C277.452 204.879 271.988 206.897 266.38 206.679V206.679Z" fill="#2B2A2A"/>
<path d="M268.29 157.544C262.748 157.329 257.266 158.761 252.539 161.66C247.811 164.559 244.05 168.793 241.73 173.828C239.411 178.863 238.637 184.473 239.508 189.947C240.378 195.422 242.853 200.515 246.62 204.583C250.387 208.652 255.277 211.513 260.67 212.804C266.064 214.095 271.72 213.759 276.922 211.837C282.125 209.916 286.64 206.496 289.898 202.01C293.155 197.523 295.009 192.172 295.223 186.633C295.511 179.207 292.835 171.969 287.784 166.514C282.733 161.059 275.721 157.832 268.29 157.544V157.544ZM266.298 208.847C261.687 208.668 257.233 207.127 253.499 204.418C249.764 201.709 246.917 197.955 245.318 193.629C243.719 189.303 243.439 184.6 244.513 180.115C245.588 175.631 247.97 171.565 251.356 168.433C254.743 165.301 258.983 163.242 263.54 162.519C268.097 161.795 272.767 162.438 276.958 164.366C281.15 166.294 284.675 169.422 287.088 173.352C289.502 177.283 290.694 181.841 290.516 186.449C290.397 189.509 289.677 192.515 288.396 195.297C287.114 198.079 285.297 200.581 283.049 202.661C280.8 204.741 278.163 206.357 275.289 207.419C272.415 208.48 269.36 208.965 266.298 208.847V208.847Z" fill="#E2E2E2"/>
<path d="M259.314 192.243C259.037 192.033 259.004 191.615 258.945 191.235C258.907 191.022 258.915 190.803 258.971 190.594C259.026 190.385 259.127 190.191 259.266 190.025C259.405 189.859 259.578 189.726 259.774 189.634C259.971 189.543 260.184 189.495 260.401 189.496C261.835 189.392 263.242 190.537 264.51 191.209C265.586 191.772 266.776 192.085 267.991 192.125C269.173 192.233 270.356 191.932 271.342 191.272C271.756 190.978 272.095 190.591 272.331 190.142C272.567 189.693 272.694 189.194 272.702 188.687C272.754 187.579 272.454 186.785 271.808 186.29C271.161 185.795 270.027 185.507 268.408 185.437L267.34 185.389C264.697 185.271 262.708 184.628 261.373 183.461C260.037 182.294 259.422 180.663 259.525 178.568C259.619 176.515 260.368 174.953 261.772 173.882C263.176 172.811 265.102 172.328 267.551 172.434C268.588 172.487 269.61 172.703 270.581 173.073C272.705 173.863 276.194 175.765 275.34 177.874C274.368 180.278 270.758 176.57 269.457 175.942C268.604 175.552 267.68 175.34 266.742 175.318C265.676 175.218 264.611 175.515 263.752 176.153C263.38 176.437 263.077 176.8 262.864 177.217C262.652 177.634 262.536 178.093 262.526 178.561C262.477 178.982 262.55 179.409 262.737 179.79C262.923 180.171 263.216 180.49 263.579 180.71C264.318 181.163 265.952 181.478 268.482 181.655C271.172 181.855 273.116 182.506 274.313 183.609C275.51 184.712 276.059 186.36 275.961 188.554C275.865 190.651 275.102 192.299 273.674 193.495C272.245 194.692 270.364 195.238 268.031 195.135C267.203 195.084 266.381 194.961 265.574 194.765C263.878 194.404 261.221 193.698 259.314 192.243Z" fill="#E2E2E2"/>
<path d="M267.008 200.615H266.978C266.173 200.578 265.555 199.795 265.596 198.865L266.886 170.144C266.926 169.214 267.625 168.49 268.419 168.527H268.449C269.254 168.564 269.871 169.347 269.831 170.277L268.541 198.998C268.497 199.943 267.813 200.667 267.008 200.615Z" fill="#E2E2E2"/>
<path d="M297.104 173.963L294.857 174.86L292.91 173.989L292.515 174.31L292.888 174.812L291.063 174.55L289.788 175.333L289.647 177.316L290.797 179.019L292.781 178.952L294.784 177.697L297.913 176.603L297.104 173.963Z" fill="#AA6755"/>
<path d="M294.506 173.372L307.11 165.395L304.546 145.893L317.841 156.27L315.805 173.527L296.221 177.767L294.506 173.372Z" fill="#3B3387"/>
<path d="M111.352 229.376L163.036 249.329L219.677 230.425L171.619 211.845L111.352 229.376Z" fill="#CCCCCC"/>
<path d="M194.109 250.639C204.161 244.344 207.204 231.096 200.906 221.049C194.607 211.003 181.352 207.961 171.299 214.256C161.247 220.551 158.204 233.799 164.502 243.846C170.801 253.892 184.056 256.934 194.109 250.639Z" fill="white"/>
<path d="M196.679 219.523L197.178 219.154C197.078 219.017 194.636 215.804 189.814 213.943L189.588 214.523C192.339 215.559 194.78 217.28 196.679 219.523Z" fill="#5C5955"/>
<path d="M168.656 219.471C170.563 217.234 173.01 215.52 175.765 214.493L175.543 213.913C172.672 214.964 170.124 216.747 168.153 219.084L168.656 219.471Z" fill="#5C5955"/>
<path d="M198.431 243.897C199.909 242.334 201.058 239.834 201.875 236.511C202.242 235.013 202.506 233.491 202.665 231.957L202.044 231.902C202.044 231.983 201.305 239.934 197.98 243.479L198.431 243.897Z" fill="#5C5955"/>
<path d="M166.878 243.823L167.333 243.398C164.007 239.838 163.316 231.883 163.309 231.802L162.688 231.854C162.84 233.397 163.098 234.929 163.46 236.437C164.266 239.779 165.415 242.272 166.878 243.823Z" fill="#5C5955"/>
<path d="M182.28 252.172C184.013 252.177 185.742 251.99 187.434 251.615L187.283 251.009C187.235 251.009 182.254 252.213 177.834 251.009L177.668 251.611C179.174 252 180.724 252.188 182.28 252.172V252.172Z" fill="#5C5955"/>
<path d="M182.715 224.394L190.01 229.712L187.205 238.291L178.174 238.276L175.399 229.686L182.715 224.394Z" fill="#292949"/>
<path d="M182.723 219.748L175.429 214.43L178.237 205.855L187.264 205.87L190.039 214.46L182.723 219.748Z" fill="#292949"/>
<path d="M189.529 242.936L198.556 243.066L201.224 251.685L193.845 256.888L186.617 251.482L189.529 242.936Z" fill="#292949"/>
<path d="M186.415 236.038L185.856 236.316L190.168 244.975L190.727 244.697L186.415 236.038Z" fill="#292949"/>
<path d="M194.54 227.884L196.602 219.098L205.603 218.341L209.098 226.661L202.262 232.559L194.54 227.884Z" fill="#292949"/>
<path d="M196.845 226.503L187.967 230.352L188.216 230.925L197.094 227.076L196.845 226.503Z" fill="#292949"/>
<path d="M175.787 243.025L166.76 243.117L164.059 251.729L171.42 256.959L178.669 251.578L175.787 243.025Z" fill="#292949"/>
<path d="M178.916 236.109L174.573 244.752L175.131 245.032L179.474 236.389L178.916 236.109Z" fill="#292949"/>
<path d="M170.758 227.891L168.597 219.128L159.592 218.474L156.185 226.831L163.087 232.652L170.758 227.891Z" fill="#292949"/>
<path d="M168.432 226.537L168.19 227.113L177.11 230.864L177.352 230.288L168.432 226.537Z" fill="#292949"/>
<path d="M182.432 215.257L182.412 225.442L183.037 225.444L183.056 215.258L182.432 215.257Z" fill="#292949"/>
<path d="M162.954 292.123L111.286 265.992L111.352 229.332L163.017 249.292L162.954 292.123Z" fill="#E5E5E5"/>
<path d="M162.954 292.123L219.607 267.218L219.677 230.414L163.017 249.292L162.954 292.123Z" fill="white"/>
<path d="M158.527 220.21C157.923 220.401 157.363 220.709 156.878 221.117C156.394 221.526 155.995 222.026 155.705 222.589C155.415 223.152 155.239 223.766 155.187 224.398C155.136 225.029 155.21 225.664 155.405 226.266V226.266C155.596 226.871 155.904 227.431 156.312 227.916C156.721 228.4 157.221 228.799 157.784 229.089C158.348 229.38 158.963 229.556 159.595 229.608C160.226 229.659 160.862 229.586 161.465 229.391L168.116 227.263C169.334 226.873 170.347 226.015 170.932 224.879C171.518 223.743 171.628 222.421 171.239 221.203V221.203C171.048 220.599 170.74 220.039 170.331 219.554C169.923 219.07 169.423 218.671 168.859 218.38C168.296 218.09 167.681 217.914 167.049 217.862C166.417 217.81 165.782 217.884 165.179 218.079L158.527 220.21Z" fill="#5D66D3"/>
<path d="M165.589 235.765C164.906 235.412 164.16 235.197 163.393 235.132C162.627 235.067 161.856 235.155 161.123 235.389C160.391 235.623 159.712 235.999 159.125 236.495C158.538 236.992 158.055 237.6 157.703 238.283C157.351 238.965 157.137 239.71 157.073 240.474C157.009 241.239 157.096 242.009 157.329 242.739C157.563 243.47 157.939 244.148 158.435 244.734C158.931 245.319 159.537 245.802 160.22 246.153L167.754 250.031C169.132 250.741 170.736 250.875 172.212 250.403C173.689 249.931 174.918 248.893 175.628 247.516V247.516C176.339 246.138 176.472 244.534 176 243.057C175.527 241.581 174.487 240.353 173.108 239.642L165.589 235.765Z" fill="#5D66D3"/>
<path d="M140.898 243.653C141.609 242.276 142.838 241.237 144.314 240.766C145.791 240.294 147.395 240.428 148.772 241.138V241.138C150.147 241.847 151.184 243.073 151.657 244.545C152.129 246.017 151.998 247.617 151.293 248.993L147.409 256.534C147.057 257.216 146.575 257.822 145.989 258.318C145.403 258.814 144.725 259.189 143.994 259.423C143.263 259.657 142.493 259.745 141.727 259.681C140.962 259.618 140.217 259.404 139.535 259.052V259.052C138.852 258.701 138.246 258.219 137.75 257.633C137.254 257.048 136.878 256.37 136.644 255.639C136.41 254.909 136.322 254.139 136.386 253.374C136.449 252.61 136.663 251.865 137.015 251.183L140.898 243.653Z" fill="#EED5D5"/>
<path d="M130.515 229.162C129.297 229.552 128.285 230.41 127.699 231.546C127.114 232.682 127.004 234.004 127.393 235.222V235.222C127.783 236.436 128.638 237.446 129.772 238.032C130.905 238.617 132.225 238.73 133.442 238.346L140.093 236.215C140.697 236.025 141.258 235.717 141.743 235.309C142.228 234.9 142.627 234.401 142.917 233.838C143.208 233.275 143.384 232.66 143.436 232.028C143.488 231.397 143.414 230.762 143.219 230.159V230.159C143.026 229.556 142.716 228.996 142.307 228.513C141.898 228.029 141.398 227.631 140.835 227.341C140.272 227.051 139.657 226.874 139.025 226.822C138.394 226.769 137.759 226.842 137.155 227.035L130.515 229.162Z" fill="#5D66D3"/>
<path d="M140.03 242.434C141.114 245.819 143.499 248.635 146.66 250.263C149.821 251.891 153.499 252.198 156.887 251.116V251.116C158.565 250.581 160.122 249.721 161.467 248.585C162.813 247.449 163.921 246.059 164.729 244.494C165.537 242.93 166.029 241.221 166.177 239.467C166.324 237.713 166.124 235.946 165.589 234.269L164.111 229.605C163.574 227.926 162.711 226.369 161.571 225.024C160.431 223.679 159.037 222.571 157.468 221.765C155.9 220.959 154.188 220.47 152.43 220.326C150.672 220.182 148.903 220.386 147.224 220.926V220.926C145.547 221.462 143.992 222.324 142.648 223.46C141.304 224.597 140.197 225.988 139.39 227.552C138.584 229.117 138.094 230.825 137.948 232.578C137.802 234.332 138.004 236.098 138.541 237.774L140.03 242.434Z" fill="#5D66D3"/>
<path d="M159.233 215.259C160.187 207.325 154.524 200.121 146.586 199.168C138.647 198.215 131.439 203.874 130.485 211.808C129.531 219.742 135.194 226.946 143.132 227.899C151.071 228.852 158.279 223.193 159.233 215.259Z" fill="#5D66D3"/>
<path d="M149.28 227.319C155.741 225.253 160.049 220.677 158.903 217.096C157.757 213.516 151.591 212.288 145.13 214.354C138.669 216.42 134.361 220.997 135.507 224.577C136.653 228.157 142.819 229.385 149.28 227.319Z" fill="white"/>
<path d="M159.947 204.321C160.807 200.698 158.565 197.065 154.941 196.206C151.316 195.348 147.681 197.588 146.822 201.21C145.962 204.833 148.204 208.465 151.828 209.324C155.453 210.183 159.088 207.943 159.947 204.321Z" fill="#5D66D3"/>
<path d="M137.383 210.684C138.297 207.063 136.101 203.387 132.478 202.474C128.855 201.56 125.177 203.755 124.263 207.376C123.349 210.997 125.545 214.673 129.168 215.586C132.791 216.5 136.469 214.305 137.383 210.684Z" fill="#5D66D3"/>
<path d="M149.441 209.755C149.529 210.035 149.697 210.282 149.925 210.465C150.153 210.649 150.431 210.761 150.723 210.786C151.015 210.812 151.307 210.75 151.564 210.609C151.821 210.468 152.03 210.254 152.164 209.994C152.299 209.734 152.354 209.44 152.321 209.149C152.288 208.858 152.169 208.584 151.98 208.36C151.791 208.137 151.54 207.975 151.258 207.894C150.976 207.814 150.677 207.819 150.398 207.909C150.027 208.028 149.719 208.289 149.54 208.635C149.36 208.981 149.325 209.384 149.441 209.755V209.755Z" fill="#353A85"/>
<path d="M136.117 214.017C136.204 214.296 136.373 214.543 136.601 214.727C136.829 214.911 137.107 215.022 137.398 215.048C137.69 215.073 137.983 215.012 138.24 214.871C138.496 214.73 138.705 214.516 138.84 214.256C138.975 213.996 139.029 213.702 138.996 213.411C138.964 213.12 138.845 212.845 138.656 212.622C138.466 212.398 138.215 212.236 137.933 212.156C137.652 212.075 137.353 212.081 137.074 212.17C136.703 212.29 136.394 212.551 136.215 212.897C136.036 213.243 136.001 213.645 136.117 214.017Z" fill="#353A85"/>
<path d="M142.502 220.439C142.603 220.24 142.779 220.09 142.991 220.021C143.203 219.951 143.434 219.969 143.633 220.07C144.428 220.481 145.33 220.642 146.219 220.531L145.151 217.207C143.304 216.617 142.956 215.294 142.956 215.294C142.85 214.967 142.874 214.611 143.023 214.301C143.172 213.991 143.436 213.75 143.758 213.629L145.809 212.975C146.142 212.886 146.496 212.929 146.797 213.095C147.099 213.261 147.325 213.537 147.427 213.865V213.865C147.468 213.991 147.852 215.21 146.748 216.687L147.812 220.01C148.602 219.585 149.246 218.931 149.659 218.134C149.701 218.024 149.766 217.923 149.85 217.839C149.933 217.755 150.034 217.69 150.145 217.648C150.255 217.606 150.374 217.587 150.492 217.594C150.61 217.601 150.726 217.633 150.831 217.687C150.936 217.742 151.028 217.818 151.102 217.911C151.175 218.004 151.228 218.111 151.257 218.226C151.286 218.341 151.29 218.461 151.27 218.577C151.249 218.694 151.204 218.805 151.137 218.903C150.389 220.35 149.096 221.443 147.543 221.939C145.99 222.435 144.303 222.296 142.853 221.55C142.662 221.446 142.519 221.272 142.454 221.065C142.388 220.858 142.406 220.634 142.502 220.439Z" fill="#353A85"/>
<path d="M155.098 198.769C155.913 199.284 156.49 200.101 156.702 201.04C156.914 201.98 156.744 202.965 156.229 203.78L150.088 199.902C150.342 199.499 150.674 199.15 151.063 198.875C151.453 198.599 151.893 198.404 152.358 198.298C152.823 198.193 153.305 198.18 153.775 198.261C154.245 198.342 154.695 198.514 155.098 198.769V198.769Z" fill="white"/>
<path d="M127.951 207.451C128.131 207.008 128.398 206.605 128.735 206.266C129.072 205.926 129.473 205.656 129.914 205.472C130.356 205.288 130.829 205.193 131.308 205.192C131.786 205.191 132.26 205.285 132.703 205.468L129.95 212.189C129.507 212.009 129.104 211.744 128.764 211.409C128.424 211.073 128.153 210.674 127.968 210.234C127.782 209.794 127.685 209.322 127.682 208.844C127.679 208.366 127.77 207.893 127.951 207.451V207.451Z" fill="white"/>
<path d="M163.017 249.292L173.09 266.582L228.08 244.886L219.629 230.414L163.017 249.292Z" fill="#E5E5E5"/>
<path d="M102.067 240.854L151.145 264.167L163.017 249.292L111.301 229.332L102.067 240.854Z" fill="white"/>
</svg>
