<svg width="112" height="37" viewBox="0 0 112 37" fill="none" xmlns="http://www.w3.org/2000/svg">
<path d="M0.0699165 16.4523C0.115246 15.9364 0.181352 15.4185 0.270122 14.9025C0.823521 11.6896 2.18719 8.57865 4.3139 6.10844C5.18108 5.10541 6.15302 4.1981 7.21311 3.40199C8.54655 2.40219 9.96499 1.47232 11.6025 1.03384C14.175 0.345887 16.8626 0.869412 17.7352 3.62879C18.4511 5.89677 17.348 7.95685 15.1515 8.7582C8.90163 11.0375 6.26496 18.6655 10.5769 24.0822C13.2797 27.4842 17.6975 28.741 21.439 27.4275C23.2315 26.7981 24.6763 25.5828 26.1307 24.4262C31.2302 20.374 34.7829 15.0292 38.4603 9.78824C40.0865 7.46923 41.6447 5.11053 43.7488 3.15062C46.1248 0.929891 48.9824 0.504645 52.0044 0.909102C53.8138 1.14724 55.5061 1.78227 56.9416 3.08447C58.1844 4.21846 58.9871 5.60571 59.8464 6.97406C62.6732 11.4722 65.4755 15.9855 68.2532 20.5139C70.1835 23.6475 72.1251 26.7735 73.9685 29.9638C74.9884 31.7253 74.299 34.0972 72.5198 34.976C70.8615 35.7963 68.6536 35.6735 67.3655 33.825C67.2115 33.6563 67.0841 33.4652 66.9877 33.258C65.2274 30.8823 65.3351 30.2927 61.9562 30.4231C59.0588 30.4552 56.2522 30.476 53.4002 30.4722C52.5559 30.4722 51.6682 30.236 51.1545 29.5159C50.4878 28.5822 50.688 27.2706 50.6899 26.1914C50.6899 24.5603 51.7664 23.4793 53.4285 23.4717C55.6553 23.4585 57.8822 23.4717 60.228 23.4717C60.3149 23.4714 60.4002 23.4482 60.4754 23.4045C60.5506 23.3608 60.613 23.2982 60.6564 23.2228C60.6998 23.1474 60.7227 23.062 60.7227 22.975C60.7228 22.888 60.7 22.8025 60.6567 22.7271C60.0032 21.5931 59.3913 20.5347 58.7529 19.4857C57.2551 17.0288 55.7214 14.5718 54.2199 12.1148C53.7893 11.4042 53.3076 10.4875 52.3161 10.0472C49.8607 8.95476 48.2817 10.1265 47.1976 11.7482C44.729 15.445 42.3228 19.1909 39.569 22.6817C36.2826 26.8378 32.7922 30.8445 28.1516 33.6417C25.4564 35.269 22.5893 36.2197 19.403 36.3274C13.8803 36.5164 8.48611 34.6094 4.70109 30.4949C3.16062 28.8284 1.96648 26.8722 1.18805 24.7399C0.217627 22.0916 -0.163948 19.2633 0.0699165 16.4523Z" fill="#F37721"/>
<path d="M91.4978 0.107742C93.0711 0.546218 94.0986 2.23397 94.142 3.84991C94.1548 5.0658 93.7121 6.24241 92.9011 7.14793C92.0248 8.15718 90.8594 8.57109 89.7205 9.19856C86.1262 11.1925 83.9939 14.1749 84.0203 18.348C84.0411 21.5477 85.6371 24.0784 88.1283 25.9816C91.1238 28.2723 94.5066 28.5425 97.91 27.1156C99.9877 26.2424 101.614 24.6454 102.721 22.6288C103.633 20.9694 104.264 19.2136 106.101 18.365C106.678 18.0954 107.302 17.9433 107.937 17.9177C108.573 17.892 109.207 17.9933 109.803 18.2157C111.564 18.9093 112.372 20.718 111.836 22.6987C110.593 27.2914 107.998 30.9542 103.992 33.5094C101.281 35.2762 98.132 36.2544 94.8975 36.3349C91.7207 36.4162 88.6647 35.9569 85.8165 34.6226C82.8323 33.2202 80.4374 31.0316 78.6015 28.3101C76.3329 24.9945 75.2635 21.0032 75.5701 16.9966C75.8515 12.9086 77.2246 9.23258 79.969 6.06119C82.2902 3.37741 85.4803 1.46664 88.8347 0.37801C89.423 0.158759 90.0416 0.0312725 90.6686 1.32226e-05C90.9487 -0.00230775 91.2277 0.033942 91.4978 0.107742Z" fill="#FCB315"/>
</svg>
