<svg width="60" height="60" viewBox="0 0 60 60" fill="none" xmlns="http://www.w3.org/2000/svg">
<g filter="url(#filter0_d)">
<path fill-rule="evenodd" clip-rule="evenodd" d="M15 25.0002C15 16.716 21.7157 10.0002 30 10.0002C38.2843 10.0002 45 16.716 45 25.0002C45 33.2845 38.2843 40.0002 30 40.0002C21.7157 40.0002 15 33.2845 15 25.0002Z" fill="#55ACEE"/>
<path fill-rule="evenodd" clip-rule="evenodd" d="M29.5508 22.1924L29.5822 22.7115L29.0576 22.6479C27.148 22.4043 25.4798 21.5781 24.0633 20.1904L23.3709 19.5019L23.1925 20.0104C22.8148 21.1438 23.0561 22.3407 23.843 23.1458C24.2627 23.5906 24.1683 23.6542 23.4443 23.3894C23.1925 23.3046 22.9721 23.2411 22.9512 23.2729C22.8777 23.347 23.1295 24.3109 23.3289 24.6923C23.6017 25.2219 24.1578 25.7409 24.7663 26.0481L25.2804 26.2917L24.6719 26.3023C24.0843 26.3023 24.0633 26.3129 24.1263 26.5354C24.3361 27.2239 25.165 27.9548 26.0883 28.2725L26.7388 28.495L26.1723 28.8339C25.3329 29.3212 24.3466 29.5966 23.3604 29.6178C22.8882 29.6284 22.5 29.6708 22.5 29.7025C22.5 29.8085 23.78 30.4016 24.525 30.6347C26.7598 31.3232 29.4144 31.0266 31.4079 29.8508C32.8243 29.014 34.2408 27.351 34.9018 25.7409C35.2585 24.8829 35.6152 23.3152 35.6152 22.5632C35.6152 22.0759 35.6467 22.0124 36.2343 21.4298C36.5805 21.0908 36.9058 20.7201 36.9687 20.6141C37.0737 20.4129 37.0632 20.4129 36.5281 20.593C35.6362 20.9107 35.5103 20.8684 35.951 20.3917C36.2762 20.0527 36.6645 19.4384 36.6645 19.2583C36.6645 19.2265 36.5071 19.2795 36.3287 19.3748C36.1398 19.4807 35.7202 19.6396 35.4054 19.735L34.8388 19.915L34.3247 19.5655C34.0414 19.3748 33.6427 19.163 33.4329 19.0994C32.8978 18.9511 32.0794 18.9723 31.5967 19.1418C30.2852 19.6184 29.4563 20.8472 29.5508 22.1924Z" fill="white"/>
</g>
<defs>
<filter id="filter0_d" x="0" y="0.000244141" width="60" height="60" filterUnits="userSpaceOnUse" color-interpolation-filters="sRGB">
<feFlood flood-opacity="0" result="BackgroundImageFix"/>
<feColorMatrix in="SourceAlpha" type="matrix" values="0 0 0 0 0 0 0 0 0 0 0 0 0 0 0 0 0 0 127 0"/>
<feOffset dy="5"/>
<feGaussianBlur stdDeviation="7.5"/>
<feColorMatrix type="matrix" values="0 0 0 0 0 0 0 0 0 0 0 0 0 0 0 0 0 0 0.2 0"/>
<feBlend mode="normal" in2="BackgroundImageFix" result="effect1_dropShadow"/>
<feBlend mode="normal" in="SourceGraphic" in2="effect1_dropShadow" result="shape"/>
</filter>
</defs>
</svg>
