<svg width="54" height="54" viewBox="0 0 54 54" fill="none" xmlns="http://www.w3.org/2000/svg">
<g filter="url(#filter0_d)">
<path fill-rule="evenodd" clip-rule="evenodd" d="M12 22C12 13.7157 18.7157 7 27 7C35.2843 7 42 13.7157 42 22C42 30.2843 35.2843 37 27 37C18.7157 37 12 30.2843 12 22Z" fill="#45B035"/>
<path fill-rule="evenodd" clip-rule="evenodd" d="M21.657 18.8876C21.103 18.8876 20.654 18.4521 20.654 17.9161C20.654 17.3796 21.103 16.9456 21.657 16.9456C22.211 16.9456 22.661 17.3796 22.661 17.9161C22.661 18.4521 22.211 18.8876 21.657 18.8876M26.628 16.9456C27.182 16.9456 27.6305 17.3796 27.6305 17.9161C27.6305 18.4521 27.182 18.8876 26.628 18.8876C26.0735 18.8876 25.6255 18.4521 25.6255 17.9161C25.6255 17.3796 26.0735 16.9456 26.628 16.9456M30.9015 19.0535C31.0025 19.0535 31.1025 19.0545 31.202 19.06C30.676 16.1935 27.7155 14 24.1425 14C20.1975 14 17 16.6745 17 19.9735C17 21.908 18.099 23.6275 19.8035 24.719C19.8255 24.733 19.869 24.7605 19.869 24.7605L19.179 26.922L21.761 25.607C21.761 25.607 21.842 25.63 21.8825 25.642C22.592 25.8395 23.353 25.9465 24.1425 25.9465C24.3035 25.9465 24.4635 25.94 24.6225 25.932C24.476 25.4775 24.3955 25 24.3955 24.507C24.3955 21.4945 27.3095 19.0535 30.9015 19.0535" fill="white"/>
<path fill-rule="evenodd" clip-rule="evenodd" d="M28.008 22.8036C28.008 22.3516 28.388 21.9841 28.8555 21.9841C29.324 21.9841 29.7035 22.3516 29.7035 22.8036C29.7035 23.2576 29.324 23.6256 28.8555 23.6256C28.388 23.6256 28.008 23.2576 28.008 22.8036M32.2075 22.8036C32.2075 22.3516 32.5865 21.9841 33.0545 21.9841C33.523 21.9841 33.902 22.3516 33.902 22.8036C33.902 23.2576 33.523 23.6256 33.0545 23.6256C32.5865 23.6256 32.2075 23.2576 32.2075 22.8036M24.9205 24.5421C24.9205 27.3296 27.623 29.5891 30.956 29.5891C31.6225 29.5891 32.2655 29.4981 32.8645 29.3306C32.899 29.3216 32.9675 29.3011 32.9675 29.3011L35.148 30.4131L34.565 28.5861C34.565 28.5861 34.602 28.5631 34.6205 28.5516C36.06 27.6296 36.989 26.1771 36.989 24.5421C36.989 21.7556 34.2875 19.4961 30.956 19.4961C27.623 19.4961 24.9205 21.7556 24.9205 24.5421" fill="white"/>
</g>
<defs>
<filter id="filter0_d" x="0" y="0" width="54" height="54" filterUnits="userSpaceOnUse" color-interpolation-filters="sRGB">
<feFlood flood-opacity="0" result="BackgroundImageFix"/>
<feColorMatrix in="SourceAlpha" type="matrix" values="0 0 0 0 0 0 0 0 0 0 0 0 0 0 0 0 0 0 127 0"/>
<feOffset dy="5"/>
<feGaussianBlur stdDeviation="6"/>
<feColorMatrix type="matrix" values="0 0 0 0 0 0 0 0 0 0 0 0 0 0 0 0 0 0 0.2 0"/>
<feBlend mode="normal" in2="BackgroundImageFix" result="effect1_dropShadow"/>
<feBlend mode="normal" in="SourceGraphic" in2="effect1_dropShadow" result="shape"/>
</filter>
</defs>
</svg>
