<svg width="60" height="60" viewBox="0 0 60 60" fill="none" xmlns="http://www.w3.org/2000/svg">
<g filter="url(#filter0_d)">
<path fill-rule="evenodd" clip-rule="evenodd" d="M30 41C38.2843 41 45 34.2843 45 26C45 17.7157 38.2843 11 30 11C21.7157 11 15 17.7157 15 26C15 34.2843 21.7157 41 30 41Z" fill="white"/>
<path fill-rule="evenodd" clip-rule="evenodd" d="M22.5 28.75C22.5 30.8213 25.187 32.5 28.5 32.5C31.813 32.5 34.5 30.8213 34.5 28.75C34.5 26.6787 31.813 25 28.5 25C25.187 25 22.5 26.6787 22.5 28.75" fill="white"/>
<path fill-rule="evenodd" clip-rule="evenodd" d="M28.4656 32.4341C25.5235 32.7291 22.9835 31.3831 22.7922 29.4323C22.601 27.479 24.8321 25.6595 27.7717 25.3645C30.7139 25.0696 33.2539 26.4155 33.4427 28.3664C33.6363 30.3197 31.4052 32.1416 28.4656 32.4341M34.3474 25.952C34.0973 25.8751 33.9257 25.8256 34.0556 25.4934C34.34 24.7721 34.3694 24.1499 34.0605 23.7037C33.4843 22.8708 31.9054 22.9154 30.096 23.6814C30.096 23.6814 29.5272 23.9318 29.6743 23.4781C29.9514 22.5734 29.9097 21.8173 29.4782 21.3786C28.4975 20.3846 25.8863 21.4158 23.6479 23.6789C21.9733 25.3719 21 27.1691 21 28.7233C21 31.6929 24.7683 33.5 28.4533 33.5C33.2857 33.5 36.5 30.6618 36.5 28.4085C36.5024 27.0452 35.3673 26.2718 34.3474 25.952" fill="#E6162D"/>
<path fill-rule="evenodd" clip-rule="evenodd" d="M37.7347 20.5241C36.5164 19.2533 34.7196 18.7695 33.061 19.1016V19.1016C32.6771 19.1787 32.434 19.5349 32.5159 19.8935C32.5978 20.2545 32.974 20.4831 33.358 20.4061C34.5379 20.1703 35.8151 20.5144 36.6802 21.417C37.5453 22.3195 37.7808 23.5494 37.4097 24.6276V24.6276C37.2894 24.979 37.4941 25.3545 37.8678 25.4676C38.2415 25.5807 38.6408 25.3882 38.7611 25.0392V25.0368C39.2833 23.5229 38.9531 21.7924 37.7347 20.5241" fill="#FF9933"/>
<path fill-rule="evenodd" clip-rule="evenodd" d="M35.8619 22.2769C35.246 21.6285 34.3382 21.3813 33.5021 21.5529C33.1596 21.621 32.942 21.9439 33.0136 22.2693C33.088 22.5947 33.4251 22.8016 33.7649 22.731V22.731C34.1736 22.6477 34.6196 22.7688 34.9195 23.0841C35.2195 23.402 35.3018 23.8334 35.1717 24.2118V24.2118C35.0655 24.5271 35.246 24.8677 35.5805 24.9711C35.915 25.072 36.2707 24.9005 36.3795 24.5826C36.6423 23.8081 36.4777 22.9252 35.8619 22.2769" fill="#FF9933"/>
<path fill-rule="evenodd" clip-rule="evenodd" d="M28.9432 29.1418C28.8336 29.3212 28.5907 29.4059 28.4028 29.3312C28.2148 29.2589 28.1573 29.0571 28.2644 28.8826C28.374 28.7082 28.6064 28.6235 28.7918 28.6933C28.9798 28.758 29.0476 28.9599 28.9432 29.1418M27.9433 30.3628C27.6404 30.8238 26.9903 31.0256 26.5021 30.8138C26.0217 30.6045 25.8781 30.0688 26.181 29.6178C26.4812 29.1692 27.1078 28.9699 27.5934 29.1643C28.0842 29.3661 28.2409 29.8969 27.9433 30.3628M29.0816 27.0985C27.5908 26.7272 25.9068 27.4374 25.2593 28.6908C24.5988 29.9691 25.2384 31.3894 26.7423 31.8529C28.3036 32.3338 30.1416 31.5962 30.7812 30.2182C31.4131 28.8677 30.6246 27.4798 29.0816 27.0985" fill="black"/>
</g>
<defs>
<filter id="filter0_d" x="0" y="0" width="60" height="60" filterUnits="userSpaceOnUse" color-interpolation-filters="sRGB">
<feFlood flood-opacity="0" result="BackgroundImageFix"/>
<feColorMatrix in="SourceAlpha" type="matrix" values="0 0 0 0 0 0 0 0 0 0 0 0 0 0 0 0 0 0 127 0"/>
<feOffset dy="4"/>
<feGaussianBlur stdDeviation="7.5"/>
<feColorMatrix type="matrix" values="0 0 0 0 0 0 0 0 0 0 0 0 0 0 0 0 0 0 0.12 0"/>
<feBlend mode="normal" in2="BackgroundImageFix" result="effect1_dropShadow"/>
<feBlend mode="normal" in="SourceGraphic" in2="effect1_dropShadow" result="shape"/>
</filter>
</defs>
</svg>
